%TF.GenerationSoftware,KiCad,Pcbnew,(5.1.9-0-10_14)*%
%TF.CreationDate,2021-06-15T10:39:12+02:00*%
%TF.ProjectId,WLED_Controller,574c4544-5f43-46f6-9e74-726f6c6c6572,rev?*%
%TF.SameCoordinates,Original*%
%TF.FileFunction,Copper,L2,Bot*%
%TF.FilePolarity,Positive*%
%FSLAX46Y46*%
G04 Gerber Fmt 4.6, Leading zero omitted, Abs format (unit mm)*
G04 Created by KiCad (PCBNEW (5.1.9-0-10_14)) date 2021-06-15 10:39:12*
%MOMM*%
%LPD*%
G01*
G04 APERTURE LIST*
%TA.AperFunction,ComponentPad*%
%ADD10O,2.000000X1.600000*%
%TD*%
%TA.AperFunction,ComponentPad*%
%ADD11R,2.000000X2.000000*%
%TD*%
%TA.AperFunction,ComponentPad*%
%ADD12C,3.000000*%
%TD*%
%TA.AperFunction,ComponentPad*%
%ADD13R,3.000000X3.000000*%
%TD*%
%TA.AperFunction,ComponentPad*%
%ADD14C,1.600000*%
%TD*%
%TA.AperFunction,ComponentPad*%
%ADD15O,2.400000X1.600000*%
%TD*%
%TA.AperFunction,ComponentPad*%
%ADD16R,2.400000X1.600000*%
%TD*%
%TA.AperFunction,ComponentPad*%
%ADD17O,1.600000X1.600000*%
%TD*%
G04 APERTURE END LIST*
D10*
%TO.P,U1,16*%
%TO.N,/TX*%
X114300000Y-68580000D03*
%TO.P,U1,15*%
%TO.N,/RX*%
X114300000Y-71120000D03*
%TO.P,U1,14*%
%TO.N,Net-(U1-Pad14)*%
X114300000Y-73660000D03*
%TO.P,U1,13*%
%TO.N,Net-(U1-Pad13)*%
X114300000Y-76200000D03*
%TO.P,U1,12*%
%TO.N,Net-(U1-Pad12)*%
X114300000Y-78740000D03*
%TO.P,U1,11*%
%TO.N,Net-(U1-Pad11)*%
X114300000Y-81280000D03*
%TO.P,U1,10*%
%TO.N,GND*%
X114300000Y-83820000D03*
%TO.P,U1,9*%
%TO.N,+5V*%
X114300000Y-86360000D03*
%TO.P,U1,8*%
%TO.N,Net-(U1-Pad8)*%
X91440000Y-86360000D03*
%TO.P,U1,7*%
%TO.N,Net-(U1-Pad7)*%
X91440000Y-83820000D03*
%TO.P,U1,6*%
%TO.N,Net-(U1-Pad6)*%
X91440000Y-81280000D03*
%TO.P,U1,5*%
%TO.N,Net-(U1-Pad5)*%
X91440000Y-78740000D03*
%TO.P,U1,4*%
%TO.N,Net-(U1-Pad4)*%
X91440000Y-76200000D03*
%TO.P,U1,3*%
%TO.N,Net-(U1-Pad3)*%
X91440000Y-73660000D03*
D11*
%TO.P,U1,1*%
%TO.N,/RST*%
X91440000Y-68580000D03*
D10*
%TO.P,U1,2*%
%TO.N,Net-(U1-Pad2)*%
X91440000Y-71120000D03*
%TD*%
D12*
%TO.P,J1,4*%
%TO.N,+5V*%
X132080000Y-78740000D03*
D13*
%TO.P,J1,1*%
%TO.N,GND*%
X132080000Y-63500000D03*
D12*
%TO.P,J1,3*%
%TO.N,Net-(J1-Pad3)*%
X132080000Y-73660000D03*
%TO.P,J1,2*%
%TO.N,Net-(J1-Pad2)*%
X132080000Y-68580000D03*
%TD*%
%TO.P,J2,2*%
%TO.N,+5V*%
X132080000Y-91440000D03*
D13*
%TO.P,J2,1*%
%TO.N,GND*%
X132080000Y-86360000D03*
%TD*%
D14*
%TO.P,C1,2*%
%TO.N,GND*%
X121920000Y-80090000D03*
%TO.P,C1,1*%
%TO.N,+5V*%
X121920000Y-85090000D03*
%TD*%
D15*
%TO.P,U2,14*%
%TO.N,+5V*%
X106680000Y-72390000D03*
%TO.P,U2,7*%
%TO.N,GND*%
X99060000Y-87630000D03*
%TO.P,U2,13*%
X106680000Y-74930000D03*
%TO.P,U2,6*%
%TO.N,Net-(U2-Pad6)*%
X99060000Y-85090000D03*
%TO.P,U2,12*%
%TO.N,Net-(U1-Pad12)*%
X106680000Y-77470000D03*
%TO.P,U2,5*%
%TO.N,Net-(U2-Pad5)*%
X99060000Y-82550000D03*
%TO.P,U2,11*%
%TO.N,Net-(J1-Pad2)*%
X106680000Y-80010000D03*
%TO.P,U2,4*%
%TO.N,GND*%
X99060000Y-80010000D03*
%TO.P,U2,10*%
X106680000Y-82550000D03*
%TO.P,U2,3*%
%TO.N,Net-(U2-Pad3)*%
X99060000Y-77470000D03*
%TO.P,U2,9*%
%TO.N,Net-(U1-Pad11)*%
X106680000Y-85090000D03*
%TO.P,U2,2*%
%TO.N,Net-(U2-Pad2)*%
X99060000Y-74930000D03*
%TO.P,U2,8*%
%TO.N,Net-(R1-Pad2)*%
X106680000Y-87630000D03*
D16*
%TO.P,U2,1*%
%TO.N,GND*%
X99060000Y-72390000D03*
%TD*%
D17*
%TO.P,R1,2*%
%TO.N,Net-(R1-Pad2)*%
X118110000Y-73660000D03*
D14*
%TO.P,R1,1*%
%TO.N,Net-(J1-Pad3)*%
X125730000Y-73660000D03*
%TD*%
M02*
