%TF.GenerationSoftware,KiCad,Pcbnew,(5.1.9-0-10_14)*%
%TF.CreationDate,2021-06-15T10:39:12+02:00*%
%TF.ProjectId,WLED_Controller,574c4544-5f43-46f6-9e74-726f6c6c6572,rev?*%
%TF.SameCoordinates,Original*%
%TF.FileFunction,Legend,Top*%
%TF.FilePolarity,Positive*%
%FSLAX46Y46*%
G04 Gerber Fmt 4.6, Leading zero omitted, Abs format (unit mm)*
G04 Created by KiCad (PCBNEW (5.1.9-0-10_14)) date 2021-06-15 10:39:12*
%MOMM*%
%LPD*%
G01*
G04 APERTURE LIST*
%ADD10C,0.075000*%
%ADD11C,0.150000*%
%ADD12C,0.120000*%
%ADD13C,0.010000*%
G04 APERTURE END LIST*
D10*
X116499047Y-67036190D02*
X116665714Y-67536190D01*
X116832380Y-67036190D01*
X117475238Y-67036190D02*
X117522857Y-67036190D01*
X117570476Y-67060000D01*
X117594285Y-67083809D01*
X117618095Y-67131428D01*
X117641904Y-67226666D01*
X117641904Y-67345714D01*
X117618095Y-67440952D01*
X117594285Y-67488571D01*
X117570476Y-67512380D01*
X117522857Y-67536190D01*
X117475238Y-67536190D01*
X117427619Y-67512380D01*
X117403809Y-67488571D01*
X117380000Y-67440952D01*
X117356190Y-67345714D01*
X117356190Y-67226666D01*
X117380000Y-67131428D01*
X117403809Y-67083809D01*
X117427619Y-67060000D01*
X117475238Y-67036190D01*
X117856190Y-67488571D02*
X117880000Y-67512380D01*
X117856190Y-67536190D01*
X117832380Y-67512380D01*
X117856190Y-67488571D01*
X117856190Y-67536190D01*
X118070476Y-67083809D02*
X118094285Y-67060000D01*
X118141904Y-67036190D01*
X118260952Y-67036190D01*
X118308571Y-67060000D01*
X118332380Y-67083809D01*
X118356190Y-67131428D01*
X118356190Y-67179047D01*
X118332380Y-67250476D01*
X118046666Y-67536190D01*
X118356190Y-67536190D01*
X119046666Y-67036190D02*
X119094285Y-67036190D01*
X119141904Y-67060000D01*
X119165714Y-67083809D01*
X119189523Y-67131428D01*
X119213333Y-67226666D01*
X119213333Y-67345714D01*
X119189523Y-67440952D01*
X119165714Y-67488571D01*
X119141904Y-67512380D01*
X119094285Y-67536190D01*
X119046666Y-67536190D01*
X118999047Y-67512380D01*
X118975238Y-67488571D01*
X118951428Y-67440952D01*
X118927619Y-67345714D01*
X118927619Y-67226666D01*
X118951428Y-67131428D01*
X118975238Y-67083809D01*
X118999047Y-67060000D01*
X119046666Y-67036190D01*
X119641904Y-67036190D02*
X119546666Y-67036190D01*
X119499047Y-67060000D01*
X119475238Y-67083809D01*
X119427619Y-67155238D01*
X119403809Y-67250476D01*
X119403809Y-67440952D01*
X119427619Y-67488571D01*
X119451428Y-67512380D01*
X119499047Y-67536190D01*
X119594285Y-67536190D01*
X119641904Y-67512380D01*
X119665714Y-67488571D01*
X119689523Y-67440952D01*
X119689523Y-67321904D01*
X119665714Y-67274285D01*
X119641904Y-67250476D01*
X119594285Y-67226666D01*
X119499047Y-67226666D01*
X119451428Y-67250476D01*
X119427619Y-67274285D01*
X119403809Y-67321904D01*
X119903809Y-67345714D02*
X120284761Y-67345714D01*
X120499047Y-67083809D02*
X120522857Y-67060000D01*
X120570476Y-67036190D01*
X120689523Y-67036190D01*
X120737142Y-67060000D01*
X120760952Y-67083809D01*
X120784761Y-67131428D01*
X120784761Y-67179047D01*
X120760952Y-67250476D01*
X120475238Y-67536190D01*
X120784761Y-67536190D01*
X121094285Y-67036190D02*
X121141904Y-67036190D01*
X121189523Y-67060000D01*
X121213333Y-67083809D01*
X121237142Y-67131428D01*
X121260952Y-67226666D01*
X121260952Y-67345714D01*
X121237142Y-67440952D01*
X121213333Y-67488571D01*
X121189523Y-67512380D01*
X121141904Y-67536190D01*
X121094285Y-67536190D01*
X121046666Y-67512380D01*
X121022857Y-67488571D01*
X120999047Y-67440952D01*
X120975238Y-67345714D01*
X120975238Y-67226666D01*
X120999047Y-67131428D01*
X121022857Y-67083809D01*
X121046666Y-67060000D01*
X121094285Y-67036190D01*
X121451428Y-67083809D02*
X121475238Y-67060000D01*
X121522857Y-67036190D01*
X121641904Y-67036190D01*
X121689523Y-67060000D01*
X121713333Y-67083809D01*
X121737142Y-67131428D01*
X121737142Y-67179047D01*
X121713333Y-67250476D01*
X121427619Y-67536190D01*
X121737142Y-67536190D01*
X122213333Y-67536190D02*
X121927619Y-67536190D01*
X122070476Y-67536190D02*
X122070476Y-67036190D01*
X122022857Y-67107619D01*
X121975238Y-67155238D01*
X121927619Y-67179047D01*
D11*
X122809047Y-80081428D02*
X123570952Y-80081428D01*
X122809047Y-85161428D02*
X123570952Y-85161428D01*
X123190000Y-85542380D02*
X123190000Y-84780476D01*
X136660000Y-64261904D02*
X136612380Y-64357142D01*
X136612380Y-64500000D01*
X136660000Y-64642857D01*
X136755238Y-64738095D01*
X136850476Y-64785714D01*
X137040952Y-64833333D01*
X137183809Y-64833333D01*
X137374285Y-64785714D01*
X137469523Y-64738095D01*
X137564761Y-64642857D01*
X137612380Y-64500000D01*
X137612380Y-64404761D01*
X137564761Y-64261904D01*
X137517142Y-64214285D01*
X137183809Y-64214285D01*
X137183809Y-64404761D01*
X137612380Y-63785714D02*
X136612380Y-63785714D01*
X137612380Y-63214285D01*
X136612380Y-63214285D01*
X137612380Y-62738095D02*
X136612380Y-62738095D01*
X136612380Y-62500000D01*
X136660000Y-62357142D01*
X136755238Y-62261904D01*
X136850476Y-62214285D01*
X137040952Y-62166666D01*
X137183809Y-62166666D01*
X137374285Y-62214285D01*
X137469523Y-62261904D01*
X137564761Y-62357142D01*
X137612380Y-62500000D01*
X137612380Y-62738095D01*
X137517142Y-69175238D02*
X137564761Y-69222857D01*
X137612380Y-69365714D01*
X137612380Y-69460952D01*
X137564761Y-69603809D01*
X137469523Y-69699047D01*
X137374285Y-69746666D01*
X137183809Y-69794285D01*
X137040952Y-69794285D01*
X136850476Y-69746666D01*
X136755238Y-69699047D01*
X136660000Y-69603809D01*
X136612380Y-69460952D01*
X136612380Y-69365714D01*
X136660000Y-69222857D01*
X136707619Y-69175238D01*
X137612380Y-68270476D02*
X137612380Y-68746666D01*
X136612380Y-68746666D01*
X137612380Y-67937142D02*
X136612380Y-67937142D01*
X137612380Y-67365714D02*
X137040952Y-67794285D01*
X136612380Y-67365714D02*
X137183809Y-67937142D01*
X137612380Y-73921904D02*
X136612380Y-73921904D01*
X136612380Y-73683809D01*
X136660000Y-73540952D01*
X136755238Y-73445714D01*
X136850476Y-73398095D01*
X137040952Y-73350476D01*
X137183809Y-73350476D01*
X137374285Y-73398095D01*
X137469523Y-73445714D01*
X137564761Y-73540952D01*
X137612380Y-73683809D01*
X137612380Y-73921904D01*
X137231428Y-80025714D02*
X137231428Y-79263809D01*
X137612380Y-79644761D02*
X136850476Y-79644761D01*
X136612380Y-78311428D02*
X136612380Y-78787619D01*
X137088571Y-78835238D01*
X137040952Y-78787619D01*
X136993333Y-78692380D01*
X136993333Y-78454285D01*
X137040952Y-78359047D01*
X137088571Y-78311428D01*
X137183809Y-78263809D01*
X137421904Y-78263809D01*
X137517142Y-78311428D01*
X137564761Y-78359047D01*
X137612380Y-78454285D01*
X137612380Y-78692380D01*
X137564761Y-78787619D01*
X137517142Y-78835238D01*
X136612380Y-77978095D02*
X137612380Y-77644761D01*
X136612380Y-77311428D01*
X136660000Y-87121904D02*
X136612380Y-87217142D01*
X136612380Y-87360000D01*
X136660000Y-87502857D01*
X136755238Y-87598095D01*
X136850476Y-87645714D01*
X137040952Y-87693333D01*
X137183809Y-87693333D01*
X137374285Y-87645714D01*
X137469523Y-87598095D01*
X137564761Y-87502857D01*
X137612380Y-87360000D01*
X137612380Y-87264761D01*
X137564761Y-87121904D01*
X137517142Y-87074285D01*
X137183809Y-87074285D01*
X137183809Y-87264761D01*
X137612380Y-86645714D02*
X136612380Y-86645714D01*
X137612380Y-86074285D01*
X136612380Y-86074285D01*
X137612380Y-85598095D02*
X136612380Y-85598095D01*
X136612380Y-85360000D01*
X136660000Y-85217142D01*
X136755238Y-85121904D01*
X136850476Y-85074285D01*
X137040952Y-85026666D01*
X137183809Y-85026666D01*
X137374285Y-85074285D01*
X137469523Y-85121904D01*
X137564761Y-85217142D01*
X137612380Y-85360000D01*
X137612380Y-85598095D01*
X136612380Y-92630476D02*
X137612380Y-92297142D01*
X136612380Y-91963809D01*
X137564761Y-91201904D02*
X137612380Y-91297142D01*
X137612380Y-91487619D01*
X137564761Y-91582857D01*
X137517142Y-91630476D01*
X137421904Y-91678095D01*
X137136190Y-91678095D01*
X137040952Y-91630476D01*
X136993333Y-91582857D01*
X136945714Y-91487619D01*
X136945714Y-91297142D01*
X136993333Y-91201904D01*
X137564761Y-90344761D02*
X137612380Y-90440000D01*
X137612380Y-90630476D01*
X137564761Y-90725714D01*
X137517142Y-90773333D01*
X137421904Y-90820952D01*
X137136190Y-90820952D01*
X137040952Y-90773333D01*
X136993333Y-90725714D01*
X136945714Y-90630476D01*
X136945714Y-90440000D01*
X136993333Y-90344761D01*
D12*
%TO.C,U1*%
X92480000Y-94700000D02*
X115800000Y-94700000D01*
X89940000Y-87800000D02*
X89940000Y-62370000D01*
X115800000Y-94700000D02*
X115800000Y-62370000D01*
X113680000Y-60240000D02*
X92070000Y-60240000D01*
D11*
G36*
X88900000Y-67945000D02*
G01*
X88900000Y-69215000D01*
X89535000Y-68580000D01*
X88900000Y-67945000D01*
G37*
X88900000Y-67945000D02*
X88900000Y-69215000D01*
X89535000Y-68580000D01*
X88900000Y-67945000D01*
D12*
X89940000Y-87800000D02*
X92480000Y-87800000D01*
X92480000Y-87800000D02*
X92480000Y-94700000D01*
X113670000Y-60240000D02*
G75*
G02*
X115800000Y-62370000I0J-2130000D01*
G01*
X89940000Y-62370000D02*
G75*
G02*
X92070000Y-60240000I2130000J0D01*
G01*
D13*
%TO.C,G\u002A\u002A\u002A*%
G36*
X120143686Y-89823233D02*
G01*
X120226825Y-89967313D01*
X120296737Y-90089021D01*
X120354469Y-90190331D01*
X120401065Y-90273219D01*
X120437570Y-90339660D01*
X120465029Y-90391630D01*
X120484487Y-90431105D01*
X120496990Y-90460059D01*
X120503581Y-90480469D01*
X120505307Y-90494309D01*
X120503383Y-90503189D01*
X120494504Y-90519531D01*
X120473158Y-90557449D01*
X120440987Y-90614082D01*
X120399639Y-90686567D01*
X120350758Y-90772041D01*
X120295990Y-90867643D01*
X120236980Y-90970509D01*
X120175373Y-91077778D01*
X120112816Y-91186587D01*
X120050953Y-91294072D01*
X119991430Y-91397373D01*
X119935892Y-91493626D01*
X119885984Y-91579970D01*
X119843353Y-91653541D01*
X119809643Y-91711477D01*
X119786499Y-91750915D01*
X119778027Y-91765071D01*
X119778724Y-91776727D01*
X119788021Y-91801678D01*
X119806675Y-91841331D01*
X119835446Y-91897095D01*
X119875092Y-91970379D01*
X119926371Y-92062591D01*
X119990043Y-92175140D01*
X120066867Y-92309435D01*
X120134289Y-92426517D01*
X120205327Y-92549723D01*
X120272144Y-92665833D01*
X120333398Y-92772499D01*
X120387747Y-92867374D01*
X120433848Y-92948109D01*
X120470360Y-93012358D01*
X120495941Y-93057771D01*
X120509248Y-93082001D01*
X120510811Y-93085177D01*
X120505307Y-93100605D01*
X120486864Y-93138107D01*
X120456751Y-93195375D01*
X120416239Y-93270100D01*
X120366599Y-93359973D01*
X120309100Y-93462685D01*
X120245013Y-93575926D01*
X120175608Y-93697387D01*
X120139279Y-93760531D01*
X119760590Y-94417234D01*
X117486188Y-94417688D01*
X117106444Y-93758863D01*
X117034749Y-93634259D01*
X116967561Y-93517065D01*
X116906160Y-93409543D01*
X116851826Y-93313956D01*
X116805840Y-93232565D01*
X116769481Y-93167633D01*
X116744031Y-93121421D01*
X116730768Y-93096192D01*
X116729114Y-93092113D01*
X116736439Y-93078706D01*
X116756556Y-93043204D01*
X116788126Y-92987939D01*
X116829809Y-92915243D01*
X116880266Y-92827449D01*
X116938157Y-92726891D01*
X117002142Y-92615901D01*
X117070881Y-92496811D01*
X117090239Y-92463299D01*
X117160546Y-92341561D01*
X117226884Y-92226606D01*
X117287852Y-92120870D01*
X117342046Y-92026791D01*
X117388063Y-91946808D01*
X117424500Y-91883356D01*
X117449954Y-91838875D01*
X117463021Y-91815800D01*
X117464160Y-91813714D01*
X117465988Y-91804651D01*
X117463473Y-91789982D01*
X117455593Y-91767783D01*
X117441325Y-91736129D01*
X117419646Y-91693094D01*
X117389535Y-91636754D01*
X117349968Y-91565183D01*
X117299923Y-91476457D01*
X117238377Y-91368651D01*
X117164308Y-91239839D01*
X117101746Y-91131441D01*
X116728585Y-90485587D01*
X117498215Y-90485587D01*
X117506415Y-90503452D01*
X117526265Y-90540822D01*
X117555476Y-90593734D01*
X117591757Y-90658224D01*
X117632818Y-90730328D01*
X117676369Y-90806081D01*
X117720120Y-90881521D01*
X117761780Y-90952683D01*
X117799061Y-91015603D01*
X117829671Y-91066317D01*
X117851320Y-91100862D01*
X117861719Y-91115273D01*
X117862118Y-91115462D01*
X117870899Y-91103680D01*
X117891751Y-91070599D01*
X117922750Y-91019429D01*
X117961972Y-90953379D01*
X118007494Y-90875658D01*
X118054536Y-90794434D01*
X118239370Y-90473632D01*
X118623482Y-90469876D01*
X118743990Y-90469005D01*
X118838409Y-90469067D01*
X118908858Y-90470131D01*
X118957457Y-90472271D01*
X118986326Y-90475556D01*
X118997583Y-90480060D01*
X118997484Y-90482478D01*
X118989186Y-90496690D01*
X118967713Y-90533727D01*
X118933998Y-90591968D01*
X118888977Y-90669798D01*
X118833586Y-90765599D01*
X118768758Y-90877751D01*
X118695429Y-91004639D01*
X118614534Y-91144643D01*
X118527008Y-91296147D01*
X118433786Y-91457532D01*
X118335803Y-91627182D01*
X118240904Y-91791512D01*
X118136100Y-91973315D01*
X118036294Y-92147061D01*
X117942342Y-92311231D01*
X117855097Y-92464308D01*
X117775411Y-92604775D01*
X117704141Y-92731114D01*
X117642138Y-92841809D01*
X117590257Y-92935342D01*
X117549352Y-93010195D01*
X117520277Y-93064852D01*
X117503885Y-93097794D01*
X117500441Y-93107396D01*
X117508912Y-93125570D01*
X117529608Y-93164578D01*
X117560555Y-93220865D01*
X117599782Y-93290873D01*
X117645316Y-93371047D01*
X117686353Y-93442535D01*
X117866258Y-93754466D01*
X119380000Y-93754466D01*
X119566767Y-93430389D01*
X119616525Y-93343715D01*
X119661290Y-93265093D01*
X119699219Y-93197818D01*
X119728465Y-93145182D01*
X119747182Y-93110478D01*
X119753534Y-93097071D01*
X119746766Y-93082373D01*
X119728016Y-93047401D01*
X119699615Y-92996206D01*
X119663895Y-92932838D01*
X119623187Y-92861345D01*
X119579824Y-92785778D01*
X119536136Y-92710187D01*
X119494456Y-92638622D01*
X119457114Y-92575131D01*
X119426443Y-92523766D01*
X119404774Y-92488575D01*
X119394801Y-92473975D01*
X119386498Y-92474025D01*
X119372034Y-92487895D01*
X119350091Y-92517574D01*
X119319349Y-92565054D01*
X119278491Y-92632324D01*
X119226196Y-92721375D01*
X119193808Y-92777364D01*
X119008848Y-93098299D01*
X118624717Y-93102056D01*
X118240587Y-93105814D01*
X118267718Y-93059723D01*
X118315093Y-92978924D01*
X118371670Y-92881890D01*
X118436352Y-92770535D01*
X118508041Y-92646776D01*
X118585640Y-92512528D01*
X118668050Y-92369706D01*
X118754175Y-92220226D01*
X118842916Y-92066003D01*
X118933176Y-91908954D01*
X119023857Y-91750993D01*
X119113862Y-91594037D01*
X119202092Y-91440000D01*
X119287450Y-91290799D01*
X119368839Y-91148348D01*
X119445160Y-91014564D01*
X119515316Y-90891362D01*
X119578210Y-90780657D01*
X119632743Y-90684366D01*
X119677818Y-90604403D01*
X119712338Y-90542684D01*
X119735204Y-90501124D01*
X119745319Y-90481640D01*
X119745727Y-90480470D01*
X119739155Y-90462881D01*
X119720256Y-90424368D01*
X119690888Y-90368407D01*
X119652906Y-90298472D01*
X119608168Y-90218039D01*
X119563034Y-90138454D01*
X119379590Y-89817822D01*
X118623816Y-89817644D01*
X117868043Y-89817466D01*
X117680830Y-90141840D01*
X117631060Y-90229068D01*
X117586613Y-90308880D01*
X117549300Y-90377866D01*
X117520932Y-90432618D01*
X117503321Y-90469726D01*
X117498215Y-90485587D01*
X116728585Y-90485587D01*
X116724122Y-90477864D01*
X117476212Y-89175410D01*
X119769349Y-89175410D01*
X120143686Y-89823233D01*
G37*
X120143686Y-89823233D02*
X120226825Y-89967313D01*
X120296737Y-90089021D01*
X120354469Y-90190331D01*
X120401065Y-90273219D01*
X120437570Y-90339660D01*
X120465029Y-90391630D01*
X120484487Y-90431105D01*
X120496990Y-90460059D01*
X120503581Y-90480469D01*
X120505307Y-90494309D01*
X120503383Y-90503189D01*
X120494504Y-90519531D01*
X120473158Y-90557449D01*
X120440987Y-90614082D01*
X120399639Y-90686567D01*
X120350758Y-90772041D01*
X120295990Y-90867643D01*
X120236980Y-90970509D01*
X120175373Y-91077778D01*
X120112816Y-91186587D01*
X120050953Y-91294072D01*
X119991430Y-91397373D01*
X119935892Y-91493626D01*
X119885984Y-91579970D01*
X119843353Y-91653541D01*
X119809643Y-91711477D01*
X119786499Y-91750915D01*
X119778027Y-91765071D01*
X119778724Y-91776727D01*
X119788021Y-91801678D01*
X119806675Y-91841331D01*
X119835446Y-91897095D01*
X119875092Y-91970379D01*
X119926371Y-92062591D01*
X119990043Y-92175140D01*
X120066867Y-92309435D01*
X120134289Y-92426517D01*
X120205327Y-92549723D01*
X120272144Y-92665833D01*
X120333398Y-92772499D01*
X120387747Y-92867374D01*
X120433848Y-92948109D01*
X120470360Y-93012358D01*
X120495941Y-93057771D01*
X120509248Y-93082001D01*
X120510811Y-93085177D01*
X120505307Y-93100605D01*
X120486864Y-93138107D01*
X120456751Y-93195375D01*
X120416239Y-93270100D01*
X120366599Y-93359973D01*
X120309100Y-93462685D01*
X120245013Y-93575926D01*
X120175608Y-93697387D01*
X120139279Y-93760531D01*
X119760590Y-94417234D01*
X117486188Y-94417688D01*
X117106444Y-93758863D01*
X117034749Y-93634259D01*
X116967561Y-93517065D01*
X116906160Y-93409543D01*
X116851826Y-93313956D01*
X116805840Y-93232565D01*
X116769481Y-93167633D01*
X116744031Y-93121421D01*
X116730768Y-93096192D01*
X116729114Y-93092113D01*
X116736439Y-93078706D01*
X116756556Y-93043204D01*
X116788126Y-92987939D01*
X116829809Y-92915243D01*
X116880266Y-92827449D01*
X116938157Y-92726891D01*
X117002142Y-92615901D01*
X117070881Y-92496811D01*
X117090239Y-92463299D01*
X117160546Y-92341561D01*
X117226884Y-92226606D01*
X117287852Y-92120870D01*
X117342046Y-92026791D01*
X117388063Y-91946808D01*
X117424500Y-91883356D01*
X117449954Y-91838875D01*
X117463021Y-91815800D01*
X117464160Y-91813714D01*
X117465988Y-91804651D01*
X117463473Y-91789982D01*
X117455593Y-91767783D01*
X117441325Y-91736129D01*
X117419646Y-91693094D01*
X117389535Y-91636754D01*
X117349968Y-91565183D01*
X117299923Y-91476457D01*
X117238377Y-91368651D01*
X117164308Y-91239839D01*
X117101746Y-91131441D01*
X116728585Y-90485587D01*
X117498215Y-90485587D01*
X117506415Y-90503452D01*
X117526265Y-90540822D01*
X117555476Y-90593734D01*
X117591757Y-90658224D01*
X117632818Y-90730328D01*
X117676369Y-90806081D01*
X117720120Y-90881521D01*
X117761780Y-90952683D01*
X117799061Y-91015603D01*
X117829671Y-91066317D01*
X117851320Y-91100862D01*
X117861719Y-91115273D01*
X117862118Y-91115462D01*
X117870899Y-91103680D01*
X117891751Y-91070599D01*
X117922750Y-91019429D01*
X117961972Y-90953379D01*
X118007494Y-90875658D01*
X118054536Y-90794434D01*
X118239370Y-90473632D01*
X118623482Y-90469876D01*
X118743990Y-90469005D01*
X118838409Y-90469067D01*
X118908858Y-90470131D01*
X118957457Y-90472271D01*
X118986326Y-90475556D01*
X118997583Y-90480060D01*
X118997484Y-90482478D01*
X118989186Y-90496690D01*
X118967713Y-90533727D01*
X118933998Y-90591968D01*
X118888977Y-90669798D01*
X118833586Y-90765599D01*
X118768758Y-90877751D01*
X118695429Y-91004639D01*
X118614534Y-91144643D01*
X118527008Y-91296147D01*
X118433786Y-91457532D01*
X118335803Y-91627182D01*
X118240904Y-91791512D01*
X118136100Y-91973315D01*
X118036294Y-92147061D01*
X117942342Y-92311231D01*
X117855097Y-92464308D01*
X117775411Y-92604775D01*
X117704141Y-92731114D01*
X117642138Y-92841809D01*
X117590257Y-92935342D01*
X117549352Y-93010195D01*
X117520277Y-93064852D01*
X117503885Y-93097794D01*
X117500441Y-93107396D01*
X117508912Y-93125570D01*
X117529608Y-93164578D01*
X117560555Y-93220865D01*
X117599782Y-93290873D01*
X117645316Y-93371047D01*
X117686353Y-93442535D01*
X117866258Y-93754466D01*
X119380000Y-93754466D01*
X119566767Y-93430389D01*
X119616525Y-93343715D01*
X119661290Y-93265093D01*
X119699219Y-93197818D01*
X119728465Y-93145182D01*
X119747182Y-93110478D01*
X119753534Y-93097071D01*
X119746766Y-93082373D01*
X119728016Y-93047401D01*
X119699615Y-92996206D01*
X119663895Y-92932838D01*
X119623187Y-92861345D01*
X119579824Y-92785778D01*
X119536136Y-92710187D01*
X119494456Y-92638622D01*
X119457114Y-92575131D01*
X119426443Y-92523766D01*
X119404774Y-92488575D01*
X119394801Y-92473975D01*
X119386498Y-92474025D01*
X119372034Y-92487895D01*
X119350091Y-92517574D01*
X119319349Y-92565054D01*
X119278491Y-92632324D01*
X119226196Y-92721375D01*
X119193808Y-92777364D01*
X119008848Y-93098299D01*
X118624717Y-93102056D01*
X118240587Y-93105814D01*
X118267718Y-93059723D01*
X118315093Y-92978924D01*
X118371670Y-92881890D01*
X118436352Y-92770535D01*
X118508041Y-92646776D01*
X118585640Y-92512528D01*
X118668050Y-92369706D01*
X118754175Y-92220226D01*
X118842916Y-92066003D01*
X118933176Y-91908954D01*
X119023857Y-91750993D01*
X119113862Y-91594037D01*
X119202092Y-91440000D01*
X119287450Y-91290799D01*
X119368839Y-91148348D01*
X119445160Y-91014564D01*
X119515316Y-90891362D01*
X119578210Y-90780657D01*
X119632743Y-90684366D01*
X119677818Y-90604403D01*
X119712338Y-90542684D01*
X119735204Y-90501124D01*
X119745319Y-90481640D01*
X119745727Y-90480470D01*
X119739155Y-90462881D01*
X119720256Y-90424368D01*
X119690888Y-90368407D01*
X119652906Y-90298472D01*
X119608168Y-90218039D01*
X119563034Y-90138454D01*
X119379590Y-89817822D01*
X118623816Y-89817644D01*
X117868043Y-89817466D01*
X117680830Y-90141840D01*
X117631060Y-90229068D01*
X117586613Y-90308880D01*
X117549300Y-90377866D01*
X117520932Y-90432618D01*
X117503321Y-90469726D01*
X117498215Y-90485587D01*
X116728585Y-90485587D01*
X116724122Y-90477864D01*
X117476212Y-89175410D01*
X119769349Y-89175410D01*
X120143686Y-89823233D01*
%TO.C,REF\u002A\u002A*%
G36*
X119483910Y-60742348D02*
G01*
X119562454Y-60742778D01*
X119619298Y-60743942D01*
X119658105Y-60746207D01*
X119682538Y-60749940D01*
X119696262Y-60755506D01*
X119702940Y-60763273D01*
X119706236Y-60773605D01*
X119706556Y-60774943D01*
X119711562Y-60799079D01*
X119720829Y-60846701D01*
X119733392Y-60912741D01*
X119748287Y-60992128D01*
X119764551Y-61079796D01*
X119765119Y-61082875D01*
X119781410Y-61168789D01*
X119796652Y-61244696D01*
X119809861Y-61306045D01*
X119820054Y-61348282D01*
X119826248Y-61366855D01*
X119826543Y-61367184D01*
X119844788Y-61376253D01*
X119882405Y-61391367D01*
X119931271Y-61409262D01*
X119931543Y-61409358D01*
X119993093Y-61432493D01*
X120065657Y-61461965D01*
X120134057Y-61491597D01*
X120137294Y-61493062D01*
X120248702Y-61543626D01*
X120495399Y-61375160D01*
X120571077Y-61323803D01*
X120639631Y-61277889D01*
X120697088Y-61240030D01*
X120739476Y-61212837D01*
X120762825Y-61198921D01*
X120765042Y-61197889D01*
X120782010Y-61202484D01*
X120813701Y-61224655D01*
X120861352Y-61265447D01*
X120926198Y-61325905D01*
X120992397Y-61390227D01*
X121056214Y-61453612D01*
X121113329Y-61511451D01*
X121160305Y-61560175D01*
X121193703Y-61596210D01*
X121210085Y-61615984D01*
X121210694Y-61617002D01*
X121212505Y-61630572D01*
X121205683Y-61652733D01*
X121188540Y-61686478D01*
X121159393Y-61734800D01*
X121116555Y-61800692D01*
X121059448Y-61885517D01*
X121008766Y-61960177D01*
X120963461Y-62027140D01*
X120926150Y-62082516D01*
X120899452Y-62122420D01*
X120885985Y-62142962D01*
X120885137Y-62144356D01*
X120886781Y-62164038D01*
X120899245Y-62202293D01*
X120920048Y-62251889D01*
X120927462Y-62267728D01*
X120959814Y-62338290D01*
X120994328Y-62418353D01*
X121022365Y-62487629D01*
X121042568Y-62539045D01*
X121058615Y-62578119D01*
X121067888Y-62598541D01*
X121069041Y-62600114D01*
X121086096Y-62602721D01*
X121126298Y-62609863D01*
X121184302Y-62620523D01*
X121254763Y-62633685D01*
X121332335Y-62648333D01*
X121411672Y-62663449D01*
X121487431Y-62678018D01*
X121554264Y-62691022D01*
X121606828Y-62701445D01*
X121639776Y-62708270D01*
X121647857Y-62710199D01*
X121656205Y-62714962D01*
X121662506Y-62725718D01*
X121667045Y-62746098D01*
X121670104Y-62779734D01*
X121671967Y-62830255D01*
X121672918Y-62901292D01*
X121673240Y-62996476D01*
X121673257Y-63035492D01*
X121673257Y-63352799D01*
X121597057Y-63367839D01*
X121554663Y-63375995D01*
X121491400Y-63387899D01*
X121414962Y-63402116D01*
X121333043Y-63417210D01*
X121310400Y-63421355D01*
X121234806Y-63436053D01*
X121168953Y-63450505D01*
X121118366Y-63463375D01*
X121088574Y-63473322D01*
X121083612Y-63476287D01*
X121071426Y-63497283D01*
X121053953Y-63537967D01*
X121034577Y-63590322D01*
X121030734Y-63601600D01*
X121005339Y-63671523D01*
X120973817Y-63750418D01*
X120942969Y-63821266D01*
X120942817Y-63821595D01*
X120891447Y-63932733D01*
X121060399Y-64181253D01*
X121229352Y-64429772D01*
X121012429Y-64647058D01*
X120946819Y-64711726D01*
X120886979Y-64768733D01*
X120836267Y-64815033D01*
X120798046Y-64847584D01*
X120775675Y-64863343D01*
X120772466Y-64864343D01*
X120753626Y-64856469D01*
X120715180Y-64834578D01*
X120661330Y-64801267D01*
X120596276Y-64759131D01*
X120525940Y-64711943D01*
X120454555Y-64663810D01*
X120390908Y-64621928D01*
X120339041Y-64588871D01*
X120302995Y-64567218D01*
X120286867Y-64559543D01*
X120267189Y-64566037D01*
X120229875Y-64583150D01*
X120182621Y-64607326D01*
X120177612Y-64610013D01*
X120113977Y-64641927D01*
X120070341Y-64657579D01*
X120043202Y-64657745D01*
X120029057Y-64643204D01*
X120028975Y-64643000D01*
X120021905Y-64625779D01*
X120005042Y-64584899D01*
X119979695Y-64523525D01*
X119947171Y-64444819D01*
X119908778Y-64351947D01*
X119865822Y-64248072D01*
X119824222Y-64147502D01*
X119778504Y-64036516D01*
X119736526Y-63933703D01*
X119699548Y-63842215D01*
X119668827Y-63765201D01*
X119645622Y-63705815D01*
X119631190Y-63667209D01*
X119626743Y-63652800D01*
X119637896Y-63636272D01*
X119667069Y-63609930D01*
X119705971Y-63580887D01*
X119816757Y-63489039D01*
X119903351Y-63383759D01*
X119964716Y-63267266D01*
X119999815Y-63141776D01*
X120007608Y-63009507D01*
X120001943Y-62948457D01*
X119971078Y-62821795D01*
X119917920Y-62709941D01*
X119845767Y-62614001D01*
X119757917Y-62535076D01*
X119657665Y-62474270D01*
X119548310Y-62432687D01*
X119433147Y-62411428D01*
X119315475Y-62411599D01*
X119198590Y-62434301D01*
X119085789Y-62480638D01*
X118980369Y-62551713D01*
X118936368Y-62591911D01*
X118851979Y-62695129D01*
X118793222Y-62807925D01*
X118759704Y-62927010D01*
X118751035Y-63049095D01*
X118766823Y-63170893D01*
X118806678Y-63289116D01*
X118870207Y-63400475D01*
X118957021Y-63501684D01*
X119054029Y-63580887D01*
X119094437Y-63611162D01*
X119122982Y-63637219D01*
X119133257Y-63652825D01*
X119127877Y-63669843D01*
X119112575Y-63710500D01*
X119088612Y-63771642D01*
X119057244Y-63850119D01*
X119019732Y-63942780D01*
X118977333Y-64046472D01*
X118935663Y-64147526D01*
X118889690Y-64258607D01*
X118847107Y-64361541D01*
X118809221Y-64453165D01*
X118777340Y-64530316D01*
X118752771Y-64589831D01*
X118736820Y-64628544D01*
X118730910Y-64643000D01*
X118716948Y-64657685D01*
X118689940Y-64657642D01*
X118646413Y-64642099D01*
X118582890Y-64610284D01*
X118582388Y-64610013D01*
X118534560Y-64585323D01*
X118495897Y-64567338D01*
X118474095Y-64559614D01*
X118473133Y-64559543D01*
X118456721Y-64567378D01*
X118420487Y-64589165D01*
X118368474Y-64622328D01*
X118304725Y-64664291D01*
X118234060Y-64711943D01*
X118162116Y-64760191D01*
X118097274Y-64802151D01*
X118043735Y-64835227D01*
X118005697Y-64856821D01*
X117987533Y-64864343D01*
X117970808Y-64854457D01*
X117937180Y-64826826D01*
X117890010Y-64784495D01*
X117832658Y-64730505D01*
X117768484Y-64667899D01*
X117747497Y-64646983D01*
X117530499Y-64429623D01*
X117695668Y-64187220D01*
X117745864Y-64112781D01*
X117789919Y-64045972D01*
X117825362Y-63990665D01*
X117849719Y-63950729D01*
X117860522Y-63930036D01*
X117860838Y-63928563D01*
X117855143Y-63909058D01*
X117839826Y-63869822D01*
X117817537Y-63817430D01*
X117801893Y-63782355D01*
X117772641Y-63715201D01*
X117745094Y-63647358D01*
X117723737Y-63590034D01*
X117717935Y-63572572D01*
X117701452Y-63525938D01*
X117685340Y-63489905D01*
X117676490Y-63476287D01*
X117656960Y-63467952D01*
X117614334Y-63456137D01*
X117554145Y-63442181D01*
X117481922Y-63427422D01*
X117449600Y-63421355D01*
X117367522Y-63406273D01*
X117288795Y-63391669D01*
X117221109Y-63378980D01*
X117172160Y-63369642D01*
X117162943Y-63367839D01*
X117086743Y-63352799D01*
X117086743Y-63035492D01*
X117086914Y-62931154D01*
X117087616Y-62852213D01*
X117089134Y-62795038D01*
X117091749Y-62755999D01*
X117095746Y-62731465D01*
X117101409Y-62717805D01*
X117109020Y-62711389D01*
X117112143Y-62710199D01*
X117130978Y-62705980D01*
X117172588Y-62697562D01*
X117231630Y-62685961D01*
X117302757Y-62672195D01*
X117380625Y-62657280D01*
X117459887Y-62642232D01*
X117535198Y-62628069D01*
X117601213Y-62615806D01*
X117652587Y-62606461D01*
X117683975Y-62601050D01*
X117690959Y-62600114D01*
X117697285Y-62587596D01*
X117711290Y-62554246D01*
X117730355Y-62506377D01*
X117737634Y-62487629D01*
X117766996Y-62415195D01*
X117801571Y-62335170D01*
X117832537Y-62267728D01*
X117855323Y-62216159D01*
X117870482Y-62173785D01*
X117875542Y-62147834D01*
X117874736Y-62144356D01*
X117864041Y-62127936D01*
X117839620Y-62091417D01*
X117804095Y-62038687D01*
X117760087Y-61973635D01*
X117710217Y-61900151D01*
X117700356Y-61885645D01*
X117642492Y-61799704D01*
X117599956Y-61734261D01*
X117571054Y-61686304D01*
X117554090Y-61652820D01*
X117547367Y-61630795D01*
X117549190Y-61617217D01*
X117549236Y-61617131D01*
X117563586Y-61599297D01*
X117595323Y-61564817D01*
X117641010Y-61517268D01*
X117697204Y-61460222D01*
X117760468Y-61397255D01*
X117767602Y-61390227D01*
X117847330Y-61313020D01*
X117908857Y-61256330D01*
X117953421Y-61219110D01*
X117982257Y-61200315D01*
X117994958Y-61197889D01*
X118013494Y-61208471D01*
X118051961Y-61232916D01*
X118106386Y-61268612D01*
X118172798Y-61312947D01*
X118247225Y-61363311D01*
X118264601Y-61375160D01*
X118511297Y-61543626D01*
X118622706Y-61493062D01*
X118690457Y-61463595D01*
X118763183Y-61433959D01*
X118825703Y-61410330D01*
X118828457Y-61409358D01*
X118877360Y-61391457D01*
X118915057Y-61376320D01*
X118933425Y-61367210D01*
X118933456Y-61367184D01*
X118939285Y-61350717D01*
X118949192Y-61310219D01*
X118962195Y-61250242D01*
X118977309Y-61175340D01*
X118993552Y-61090064D01*
X118994881Y-61082875D01*
X119011175Y-60995014D01*
X119026133Y-60915260D01*
X119038791Y-60848681D01*
X119048186Y-60800347D01*
X119053354Y-60775325D01*
X119053444Y-60774943D01*
X119056589Y-60764299D01*
X119062704Y-60756262D01*
X119075453Y-60750467D01*
X119098500Y-60746547D01*
X119135509Y-60744135D01*
X119190144Y-60742865D01*
X119266067Y-60742371D01*
X119366944Y-60742286D01*
X119380000Y-60742286D01*
X119483910Y-60742348D01*
G37*
X119483910Y-60742348D02*
X119562454Y-60742778D01*
X119619298Y-60743942D01*
X119658105Y-60746207D01*
X119682538Y-60749940D01*
X119696262Y-60755506D01*
X119702940Y-60763273D01*
X119706236Y-60773605D01*
X119706556Y-60774943D01*
X119711562Y-60799079D01*
X119720829Y-60846701D01*
X119733392Y-60912741D01*
X119748287Y-60992128D01*
X119764551Y-61079796D01*
X119765119Y-61082875D01*
X119781410Y-61168789D01*
X119796652Y-61244696D01*
X119809861Y-61306045D01*
X119820054Y-61348282D01*
X119826248Y-61366855D01*
X119826543Y-61367184D01*
X119844788Y-61376253D01*
X119882405Y-61391367D01*
X119931271Y-61409262D01*
X119931543Y-61409358D01*
X119993093Y-61432493D01*
X120065657Y-61461965D01*
X120134057Y-61491597D01*
X120137294Y-61493062D01*
X120248702Y-61543626D01*
X120495399Y-61375160D01*
X120571077Y-61323803D01*
X120639631Y-61277889D01*
X120697088Y-61240030D01*
X120739476Y-61212837D01*
X120762825Y-61198921D01*
X120765042Y-61197889D01*
X120782010Y-61202484D01*
X120813701Y-61224655D01*
X120861352Y-61265447D01*
X120926198Y-61325905D01*
X120992397Y-61390227D01*
X121056214Y-61453612D01*
X121113329Y-61511451D01*
X121160305Y-61560175D01*
X121193703Y-61596210D01*
X121210085Y-61615984D01*
X121210694Y-61617002D01*
X121212505Y-61630572D01*
X121205683Y-61652733D01*
X121188540Y-61686478D01*
X121159393Y-61734800D01*
X121116555Y-61800692D01*
X121059448Y-61885517D01*
X121008766Y-61960177D01*
X120963461Y-62027140D01*
X120926150Y-62082516D01*
X120899452Y-62122420D01*
X120885985Y-62142962D01*
X120885137Y-62144356D01*
X120886781Y-62164038D01*
X120899245Y-62202293D01*
X120920048Y-62251889D01*
X120927462Y-62267728D01*
X120959814Y-62338290D01*
X120994328Y-62418353D01*
X121022365Y-62487629D01*
X121042568Y-62539045D01*
X121058615Y-62578119D01*
X121067888Y-62598541D01*
X121069041Y-62600114D01*
X121086096Y-62602721D01*
X121126298Y-62609863D01*
X121184302Y-62620523D01*
X121254763Y-62633685D01*
X121332335Y-62648333D01*
X121411672Y-62663449D01*
X121487431Y-62678018D01*
X121554264Y-62691022D01*
X121606828Y-62701445D01*
X121639776Y-62708270D01*
X121647857Y-62710199D01*
X121656205Y-62714962D01*
X121662506Y-62725718D01*
X121667045Y-62746098D01*
X121670104Y-62779734D01*
X121671967Y-62830255D01*
X121672918Y-62901292D01*
X121673240Y-62996476D01*
X121673257Y-63035492D01*
X121673257Y-63352799D01*
X121597057Y-63367839D01*
X121554663Y-63375995D01*
X121491400Y-63387899D01*
X121414962Y-63402116D01*
X121333043Y-63417210D01*
X121310400Y-63421355D01*
X121234806Y-63436053D01*
X121168953Y-63450505D01*
X121118366Y-63463375D01*
X121088574Y-63473322D01*
X121083612Y-63476287D01*
X121071426Y-63497283D01*
X121053953Y-63537967D01*
X121034577Y-63590322D01*
X121030734Y-63601600D01*
X121005339Y-63671523D01*
X120973817Y-63750418D01*
X120942969Y-63821266D01*
X120942817Y-63821595D01*
X120891447Y-63932733D01*
X121060399Y-64181253D01*
X121229352Y-64429772D01*
X121012429Y-64647058D01*
X120946819Y-64711726D01*
X120886979Y-64768733D01*
X120836267Y-64815033D01*
X120798046Y-64847584D01*
X120775675Y-64863343D01*
X120772466Y-64864343D01*
X120753626Y-64856469D01*
X120715180Y-64834578D01*
X120661330Y-64801267D01*
X120596276Y-64759131D01*
X120525940Y-64711943D01*
X120454555Y-64663810D01*
X120390908Y-64621928D01*
X120339041Y-64588871D01*
X120302995Y-64567218D01*
X120286867Y-64559543D01*
X120267189Y-64566037D01*
X120229875Y-64583150D01*
X120182621Y-64607326D01*
X120177612Y-64610013D01*
X120113977Y-64641927D01*
X120070341Y-64657579D01*
X120043202Y-64657745D01*
X120029057Y-64643204D01*
X120028975Y-64643000D01*
X120021905Y-64625779D01*
X120005042Y-64584899D01*
X119979695Y-64523525D01*
X119947171Y-64444819D01*
X119908778Y-64351947D01*
X119865822Y-64248072D01*
X119824222Y-64147502D01*
X119778504Y-64036516D01*
X119736526Y-63933703D01*
X119699548Y-63842215D01*
X119668827Y-63765201D01*
X119645622Y-63705815D01*
X119631190Y-63667209D01*
X119626743Y-63652800D01*
X119637896Y-63636272D01*
X119667069Y-63609930D01*
X119705971Y-63580887D01*
X119816757Y-63489039D01*
X119903351Y-63383759D01*
X119964716Y-63267266D01*
X119999815Y-63141776D01*
X120007608Y-63009507D01*
X120001943Y-62948457D01*
X119971078Y-62821795D01*
X119917920Y-62709941D01*
X119845767Y-62614001D01*
X119757917Y-62535076D01*
X119657665Y-62474270D01*
X119548310Y-62432687D01*
X119433147Y-62411428D01*
X119315475Y-62411599D01*
X119198590Y-62434301D01*
X119085789Y-62480638D01*
X118980369Y-62551713D01*
X118936368Y-62591911D01*
X118851979Y-62695129D01*
X118793222Y-62807925D01*
X118759704Y-62927010D01*
X118751035Y-63049095D01*
X118766823Y-63170893D01*
X118806678Y-63289116D01*
X118870207Y-63400475D01*
X118957021Y-63501684D01*
X119054029Y-63580887D01*
X119094437Y-63611162D01*
X119122982Y-63637219D01*
X119133257Y-63652825D01*
X119127877Y-63669843D01*
X119112575Y-63710500D01*
X119088612Y-63771642D01*
X119057244Y-63850119D01*
X119019732Y-63942780D01*
X118977333Y-64046472D01*
X118935663Y-64147526D01*
X118889690Y-64258607D01*
X118847107Y-64361541D01*
X118809221Y-64453165D01*
X118777340Y-64530316D01*
X118752771Y-64589831D01*
X118736820Y-64628544D01*
X118730910Y-64643000D01*
X118716948Y-64657685D01*
X118689940Y-64657642D01*
X118646413Y-64642099D01*
X118582890Y-64610284D01*
X118582388Y-64610013D01*
X118534560Y-64585323D01*
X118495897Y-64567338D01*
X118474095Y-64559614D01*
X118473133Y-64559543D01*
X118456721Y-64567378D01*
X118420487Y-64589165D01*
X118368474Y-64622328D01*
X118304725Y-64664291D01*
X118234060Y-64711943D01*
X118162116Y-64760191D01*
X118097274Y-64802151D01*
X118043735Y-64835227D01*
X118005697Y-64856821D01*
X117987533Y-64864343D01*
X117970808Y-64854457D01*
X117937180Y-64826826D01*
X117890010Y-64784495D01*
X117832658Y-64730505D01*
X117768484Y-64667899D01*
X117747497Y-64646983D01*
X117530499Y-64429623D01*
X117695668Y-64187220D01*
X117745864Y-64112781D01*
X117789919Y-64045972D01*
X117825362Y-63990665D01*
X117849719Y-63950729D01*
X117860522Y-63930036D01*
X117860838Y-63928563D01*
X117855143Y-63909058D01*
X117839826Y-63869822D01*
X117817537Y-63817430D01*
X117801893Y-63782355D01*
X117772641Y-63715201D01*
X117745094Y-63647358D01*
X117723737Y-63590034D01*
X117717935Y-63572572D01*
X117701452Y-63525938D01*
X117685340Y-63489905D01*
X117676490Y-63476287D01*
X117656960Y-63467952D01*
X117614334Y-63456137D01*
X117554145Y-63442181D01*
X117481922Y-63427422D01*
X117449600Y-63421355D01*
X117367522Y-63406273D01*
X117288795Y-63391669D01*
X117221109Y-63378980D01*
X117172160Y-63369642D01*
X117162943Y-63367839D01*
X117086743Y-63352799D01*
X117086743Y-63035492D01*
X117086914Y-62931154D01*
X117087616Y-62852213D01*
X117089134Y-62795038D01*
X117091749Y-62755999D01*
X117095746Y-62731465D01*
X117101409Y-62717805D01*
X117109020Y-62711389D01*
X117112143Y-62710199D01*
X117130978Y-62705980D01*
X117172588Y-62697562D01*
X117231630Y-62685961D01*
X117302757Y-62672195D01*
X117380625Y-62657280D01*
X117459887Y-62642232D01*
X117535198Y-62628069D01*
X117601213Y-62615806D01*
X117652587Y-62606461D01*
X117683975Y-62601050D01*
X117690959Y-62600114D01*
X117697285Y-62587596D01*
X117711290Y-62554246D01*
X117730355Y-62506377D01*
X117737634Y-62487629D01*
X117766996Y-62415195D01*
X117801571Y-62335170D01*
X117832537Y-62267728D01*
X117855323Y-62216159D01*
X117870482Y-62173785D01*
X117875542Y-62147834D01*
X117874736Y-62144356D01*
X117864041Y-62127936D01*
X117839620Y-62091417D01*
X117804095Y-62038687D01*
X117760087Y-61973635D01*
X117710217Y-61900151D01*
X117700356Y-61885645D01*
X117642492Y-61799704D01*
X117599956Y-61734261D01*
X117571054Y-61686304D01*
X117554090Y-61652820D01*
X117547367Y-61630795D01*
X117549190Y-61617217D01*
X117549236Y-61617131D01*
X117563586Y-61599297D01*
X117595323Y-61564817D01*
X117641010Y-61517268D01*
X117697204Y-61460222D01*
X117760468Y-61397255D01*
X117767602Y-61390227D01*
X117847330Y-61313020D01*
X117908857Y-61256330D01*
X117953421Y-61219110D01*
X117982257Y-61200315D01*
X117994958Y-61197889D01*
X118013494Y-61208471D01*
X118051961Y-61232916D01*
X118106386Y-61268612D01*
X118172798Y-61312947D01*
X118247225Y-61363311D01*
X118264601Y-61375160D01*
X118511297Y-61543626D01*
X118622706Y-61493062D01*
X118690457Y-61463595D01*
X118763183Y-61433959D01*
X118825703Y-61410330D01*
X118828457Y-61409358D01*
X118877360Y-61391457D01*
X118915057Y-61376320D01*
X118933425Y-61367210D01*
X118933456Y-61367184D01*
X118939285Y-61350717D01*
X118949192Y-61310219D01*
X118962195Y-61250242D01*
X118977309Y-61175340D01*
X118993552Y-61090064D01*
X118994881Y-61082875D01*
X119011175Y-60995014D01*
X119026133Y-60915260D01*
X119038791Y-60848681D01*
X119048186Y-60800347D01*
X119053354Y-60775325D01*
X119053444Y-60774943D01*
X119056589Y-60764299D01*
X119062704Y-60756262D01*
X119075453Y-60750467D01*
X119098500Y-60746547D01*
X119135509Y-60744135D01*
X119190144Y-60742865D01*
X119266067Y-60742371D01*
X119366944Y-60742286D01*
X119380000Y-60742286D01*
X119483910Y-60742348D01*
G36*
X122533595Y-65466966D02*
G01*
X122591021Y-65504497D01*
X122618719Y-65538096D01*
X122640662Y-65599064D01*
X122642405Y-65647308D01*
X122638457Y-65711816D01*
X122489686Y-65776934D01*
X122417349Y-65810202D01*
X122370084Y-65836964D01*
X122345507Y-65860144D01*
X122341237Y-65882667D01*
X122354889Y-65907455D01*
X122369943Y-65923886D01*
X122413746Y-65950235D01*
X122461389Y-65952081D01*
X122505145Y-65931546D01*
X122537289Y-65890752D01*
X122543038Y-65876347D01*
X122570576Y-65831356D01*
X122602258Y-65812182D01*
X122645714Y-65795779D01*
X122645714Y-65857966D01*
X122641872Y-65900283D01*
X122626823Y-65935969D01*
X122595280Y-65976943D01*
X122590592Y-65982267D01*
X122555506Y-66018720D01*
X122525347Y-66038283D01*
X122487615Y-66047283D01*
X122456335Y-66050230D01*
X122400385Y-66050965D01*
X122360555Y-66041660D01*
X122335708Y-66027846D01*
X122296656Y-65997467D01*
X122269625Y-65964613D01*
X122252517Y-65923294D01*
X122243238Y-65867521D01*
X122239693Y-65791305D01*
X122239410Y-65752622D01*
X122240372Y-65706247D01*
X122328007Y-65706247D01*
X122329023Y-65731126D01*
X122331556Y-65735200D01*
X122348274Y-65729665D01*
X122384249Y-65715017D01*
X122432331Y-65694190D01*
X122442386Y-65689714D01*
X122503152Y-65658814D01*
X122536632Y-65631657D01*
X122543990Y-65606220D01*
X122526391Y-65580481D01*
X122511856Y-65569109D01*
X122459410Y-65546364D01*
X122410322Y-65550122D01*
X122369227Y-65577884D01*
X122340758Y-65627152D01*
X122331631Y-65666257D01*
X122328007Y-65706247D01*
X122240372Y-65706247D01*
X122241285Y-65662249D01*
X122248196Y-65595384D01*
X122261884Y-65546695D01*
X122284096Y-65510849D01*
X122316574Y-65482513D01*
X122330733Y-65473355D01*
X122395053Y-65449507D01*
X122465473Y-65448006D01*
X122533595Y-65466966D01*
G37*
X122533595Y-65466966D02*
X122591021Y-65504497D01*
X122618719Y-65538096D01*
X122640662Y-65599064D01*
X122642405Y-65647308D01*
X122638457Y-65711816D01*
X122489686Y-65776934D01*
X122417349Y-65810202D01*
X122370084Y-65836964D01*
X122345507Y-65860144D01*
X122341237Y-65882667D01*
X122354889Y-65907455D01*
X122369943Y-65923886D01*
X122413746Y-65950235D01*
X122461389Y-65952081D01*
X122505145Y-65931546D01*
X122537289Y-65890752D01*
X122543038Y-65876347D01*
X122570576Y-65831356D01*
X122602258Y-65812182D01*
X122645714Y-65795779D01*
X122645714Y-65857966D01*
X122641872Y-65900283D01*
X122626823Y-65935969D01*
X122595280Y-65976943D01*
X122590592Y-65982267D01*
X122555506Y-66018720D01*
X122525347Y-66038283D01*
X122487615Y-66047283D01*
X122456335Y-66050230D01*
X122400385Y-66050965D01*
X122360555Y-66041660D01*
X122335708Y-66027846D01*
X122296656Y-65997467D01*
X122269625Y-65964613D01*
X122252517Y-65923294D01*
X122243238Y-65867521D01*
X122239693Y-65791305D01*
X122239410Y-65752622D01*
X122240372Y-65706247D01*
X122328007Y-65706247D01*
X122329023Y-65731126D01*
X122331556Y-65735200D01*
X122348274Y-65729665D01*
X122384249Y-65715017D01*
X122432331Y-65694190D01*
X122442386Y-65689714D01*
X122503152Y-65658814D01*
X122536632Y-65631657D01*
X122543990Y-65606220D01*
X122526391Y-65580481D01*
X122511856Y-65569109D01*
X122459410Y-65546364D01*
X122410322Y-65550122D01*
X122369227Y-65577884D01*
X122340758Y-65627152D01*
X122331631Y-65666257D01*
X122328007Y-65706247D01*
X122240372Y-65706247D01*
X122241285Y-65662249D01*
X122248196Y-65595384D01*
X122261884Y-65546695D01*
X122284096Y-65510849D01*
X122316574Y-65482513D01*
X122330733Y-65473355D01*
X122395053Y-65449507D01*
X122465473Y-65448006D01*
X122533595Y-65466966D01*
G36*
X122032600Y-65458752D02*
G01*
X122049948Y-65466334D01*
X122091356Y-65499128D01*
X122126765Y-65546547D01*
X122148664Y-65597151D01*
X122152229Y-65622098D01*
X122140279Y-65656927D01*
X122114067Y-65675357D01*
X122085964Y-65686516D01*
X122073095Y-65688572D01*
X122066829Y-65673649D01*
X122054456Y-65641175D01*
X122049028Y-65626502D01*
X122018590Y-65575744D01*
X121974520Y-65550427D01*
X121918010Y-65551206D01*
X121913825Y-65552203D01*
X121883655Y-65566507D01*
X121861476Y-65594393D01*
X121846327Y-65639287D01*
X121837250Y-65704615D01*
X121833286Y-65793804D01*
X121832914Y-65841261D01*
X121832730Y-65916071D01*
X121831522Y-65967069D01*
X121828309Y-65999471D01*
X121822109Y-66018495D01*
X121811940Y-66029356D01*
X121796819Y-66037272D01*
X121795946Y-66037670D01*
X121766828Y-66049981D01*
X121752403Y-66054514D01*
X121750186Y-66040809D01*
X121748289Y-66002925D01*
X121746847Y-65945715D01*
X121745998Y-65874027D01*
X121745829Y-65821565D01*
X121746692Y-65720047D01*
X121750070Y-65643032D01*
X121757142Y-65586023D01*
X121769088Y-65544526D01*
X121787090Y-65514043D01*
X121812327Y-65490080D01*
X121837247Y-65473355D01*
X121897171Y-65451097D01*
X121966911Y-65446076D01*
X122032600Y-65458752D01*
G37*
X122032600Y-65458752D02*
X122049948Y-65466334D01*
X122091356Y-65499128D01*
X122126765Y-65546547D01*
X122148664Y-65597151D01*
X122152229Y-65622098D01*
X122140279Y-65656927D01*
X122114067Y-65675357D01*
X122085964Y-65686516D01*
X122073095Y-65688572D01*
X122066829Y-65673649D01*
X122054456Y-65641175D01*
X122049028Y-65626502D01*
X122018590Y-65575744D01*
X121974520Y-65550427D01*
X121918010Y-65551206D01*
X121913825Y-65552203D01*
X121883655Y-65566507D01*
X121861476Y-65594393D01*
X121846327Y-65639287D01*
X121837250Y-65704615D01*
X121833286Y-65793804D01*
X121832914Y-65841261D01*
X121832730Y-65916071D01*
X121831522Y-65967069D01*
X121828309Y-65999471D01*
X121822109Y-66018495D01*
X121811940Y-66029356D01*
X121796819Y-66037272D01*
X121795946Y-66037670D01*
X121766828Y-66049981D01*
X121752403Y-66054514D01*
X121750186Y-66040809D01*
X121748289Y-66002925D01*
X121746847Y-65945715D01*
X121745998Y-65874027D01*
X121745829Y-65821565D01*
X121746692Y-65720047D01*
X121750070Y-65643032D01*
X121757142Y-65586023D01*
X121769088Y-65544526D01*
X121787090Y-65514043D01*
X121812327Y-65490080D01*
X121837247Y-65473355D01*
X121897171Y-65451097D01*
X121966911Y-65446076D01*
X122032600Y-65458752D01*
G36*
X121524876Y-65456335D02*
G01*
X121566667Y-65475344D01*
X121599469Y-65498378D01*
X121623503Y-65524133D01*
X121640097Y-65557358D01*
X121650577Y-65602800D01*
X121656271Y-65665207D01*
X121658507Y-65749327D01*
X121658743Y-65804721D01*
X121658743Y-66020826D01*
X121621774Y-66037670D01*
X121592656Y-66049981D01*
X121578231Y-66054514D01*
X121575472Y-66041025D01*
X121573282Y-66004653D01*
X121571942Y-65951542D01*
X121571657Y-65909372D01*
X121570434Y-65848447D01*
X121567136Y-65800115D01*
X121562321Y-65770518D01*
X121558496Y-65764229D01*
X121532783Y-65770652D01*
X121492418Y-65787125D01*
X121445679Y-65809458D01*
X121400845Y-65833457D01*
X121366193Y-65854930D01*
X121350002Y-65869685D01*
X121349938Y-65869845D01*
X121351330Y-65897152D01*
X121363818Y-65923219D01*
X121385743Y-65944392D01*
X121417743Y-65951474D01*
X121445092Y-65950649D01*
X121483826Y-65950042D01*
X121504158Y-65959116D01*
X121516369Y-65983092D01*
X121517909Y-65987613D01*
X121523203Y-66021806D01*
X121509047Y-66042568D01*
X121472148Y-66052462D01*
X121432289Y-66054292D01*
X121360562Y-66040727D01*
X121323432Y-66021355D01*
X121277576Y-65975845D01*
X121253256Y-65919983D01*
X121251073Y-65860957D01*
X121271629Y-65805953D01*
X121302549Y-65771486D01*
X121333420Y-65752189D01*
X121381942Y-65727759D01*
X121438485Y-65702985D01*
X121447910Y-65699199D01*
X121510019Y-65671791D01*
X121545822Y-65647634D01*
X121557337Y-65623619D01*
X121546580Y-65596635D01*
X121528114Y-65575543D01*
X121484469Y-65549572D01*
X121436446Y-65547624D01*
X121392406Y-65567637D01*
X121360709Y-65607551D01*
X121356549Y-65617848D01*
X121332327Y-65655724D01*
X121296965Y-65683842D01*
X121252343Y-65706917D01*
X121252343Y-65641485D01*
X121254969Y-65601506D01*
X121266230Y-65569997D01*
X121291199Y-65536378D01*
X121315169Y-65510484D01*
X121352441Y-65473817D01*
X121381401Y-65454121D01*
X121412505Y-65446220D01*
X121447713Y-65444914D01*
X121524876Y-65456335D01*
G37*
X121524876Y-65456335D02*
X121566667Y-65475344D01*
X121599469Y-65498378D01*
X121623503Y-65524133D01*
X121640097Y-65557358D01*
X121650577Y-65602800D01*
X121656271Y-65665207D01*
X121658507Y-65749327D01*
X121658743Y-65804721D01*
X121658743Y-66020826D01*
X121621774Y-66037670D01*
X121592656Y-66049981D01*
X121578231Y-66054514D01*
X121575472Y-66041025D01*
X121573282Y-66004653D01*
X121571942Y-65951542D01*
X121571657Y-65909372D01*
X121570434Y-65848447D01*
X121567136Y-65800115D01*
X121562321Y-65770518D01*
X121558496Y-65764229D01*
X121532783Y-65770652D01*
X121492418Y-65787125D01*
X121445679Y-65809458D01*
X121400845Y-65833457D01*
X121366193Y-65854930D01*
X121350002Y-65869685D01*
X121349938Y-65869845D01*
X121351330Y-65897152D01*
X121363818Y-65923219D01*
X121385743Y-65944392D01*
X121417743Y-65951474D01*
X121445092Y-65950649D01*
X121483826Y-65950042D01*
X121504158Y-65959116D01*
X121516369Y-65983092D01*
X121517909Y-65987613D01*
X121523203Y-66021806D01*
X121509047Y-66042568D01*
X121472148Y-66052462D01*
X121432289Y-66054292D01*
X121360562Y-66040727D01*
X121323432Y-66021355D01*
X121277576Y-65975845D01*
X121253256Y-65919983D01*
X121251073Y-65860957D01*
X121271629Y-65805953D01*
X121302549Y-65771486D01*
X121333420Y-65752189D01*
X121381942Y-65727759D01*
X121438485Y-65702985D01*
X121447910Y-65699199D01*
X121510019Y-65671791D01*
X121545822Y-65647634D01*
X121557337Y-65623619D01*
X121546580Y-65596635D01*
X121528114Y-65575543D01*
X121484469Y-65549572D01*
X121436446Y-65547624D01*
X121392406Y-65567637D01*
X121360709Y-65607551D01*
X121356549Y-65617848D01*
X121332327Y-65655724D01*
X121296965Y-65683842D01*
X121252343Y-65706917D01*
X121252343Y-65641485D01*
X121254969Y-65601506D01*
X121266230Y-65569997D01*
X121291199Y-65536378D01*
X121315169Y-65510484D01*
X121352441Y-65473817D01*
X121381401Y-65454121D01*
X121412505Y-65446220D01*
X121447713Y-65444914D01*
X121524876Y-65456335D01*
G36*
X121159833Y-65458663D02*
G01*
X121162048Y-65496850D01*
X121163784Y-65554886D01*
X121164899Y-65628180D01*
X121165257Y-65705055D01*
X121165257Y-65965196D01*
X121119326Y-66011127D01*
X121087675Y-66039429D01*
X121059890Y-66050893D01*
X121021915Y-66050168D01*
X121006840Y-66048321D01*
X120959726Y-66042948D01*
X120920756Y-66039869D01*
X120911257Y-66039585D01*
X120879233Y-66041445D01*
X120833432Y-66046114D01*
X120815674Y-66048321D01*
X120772057Y-66051735D01*
X120742745Y-66044320D01*
X120713680Y-66021427D01*
X120703188Y-66011127D01*
X120657257Y-65965196D01*
X120657257Y-65478602D01*
X120694226Y-65461758D01*
X120726059Y-65449282D01*
X120744683Y-65444914D01*
X120749458Y-65458718D01*
X120753921Y-65497286D01*
X120757775Y-65556356D01*
X120760722Y-65631663D01*
X120762143Y-65695286D01*
X120766114Y-65945657D01*
X120800759Y-65950556D01*
X120832268Y-65947131D01*
X120847708Y-65936041D01*
X120852023Y-65915308D01*
X120855708Y-65871145D01*
X120858469Y-65809146D01*
X120860012Y-65734909D01*
X120860235Y-65696706D01*
X120860457Y-65476783D01*
X120906166Y-65460849D01*
X120938518Y-65450015D01*
X120956115Y-65444962D01*
X120956623Y-65444914D01*
X120958388Y-65458648D01*
X120960329Y-65496730D01*
X120962282Y-65554482D01*
X120964084Y-65627227D01*
X120965343Y-65695286D01*
X120969314Y-65945657D01*
X121056400Y-65945657D01*
X121060396Y-65717240D01*
X121064392Y-65488822D01*
X121106847Y-65466868D01*
X121138192Y-65451793D01*
X121156744Y-65444951D01*
X121157279Y-65444914D01*
X121159833Y-65458663D01*
G37*
X121159833Y-65458663D02*
X121162048Y-65496850D01*
X121163784Y-65554886D01*
X121164899Y-65628180D01*
X121165257Y-65705055D01*
X121165257Y-65965196D01*
X121119326Y-66011127D01*
X121087675Y-66039429D01*
X121059890Y-66050893D01*
X121021915Y-66050168D01*
X121006840Y-66048321D01*
X120959726Y-66042948D01*
X120920756Y-66039869D01*
X120911257Y-66039585D01*
X120879233Y-66041445D01*
X120833432Y-66046114D01*
X120815674Y-66048321D01*
X120772057Y-66051735D01*
X120742745Y-66044320D01*
X120713680Y-66021427D01*
X120703188Y-66011127D01*
X120657257Y-65965196D01*
X120657257Y-65478602D01*
X120694226Y-65461758D01*
X120726059Y-65449282D01*
X120744683Y-65444914D01*
X120749458Y-65458718D01*
X120753921Y-65497286D01*
X120757775Y-65556356D01*
X120760722Y-65631663D01*
X120762143Y-65695286D01*
X120766114Y-65945657D01*
X120800759Y-65950556D01*
X120832268Y-65947131D01*
X120847708Y-65936041D01*
X120852023Y-65915308D01*
X120855708Y-65871145D01*
X120858469Y-65809146D01*
X120860012Y-65734909D01*
X120860235Y-65696706D01*
X120860457Y-65476783D01*
X120906166Y-65460849D01*
X120938518Y-65450015D01*
X120956115Y-65444962D01*
X120956623Y-65444914D01*
X120958388Y-65458648D01*
X120960329Y-65496730D01*
X120962282Y-65554482D01*
X120964084Y-65627227D01*
X120965343Y-65695286D01*
X120969314Y-65945657D01*
X121056400Y-65945657D01*
X121060396Y-65717240D01*
X121064392Y-65488822D01*
X121106847Y-65466868D01*
X121138192Y-65451793D01*
X121156744Y-65444951D01*
X121157279Y-65444914D01*
X121159833Y-65458663D01*
G36*
X120570117Y-65565358D02*
G01*
X120569933Y-65673837D01*
X120569219Y-65757287D01*
X120567675Y-65819704D01*
X120565001Y-65865085D01*
X120560894Y-65897429D01*
X120555055Y-65920733D01*
X120547182Y-65938995D01*
X120541221Y-65949418D01*
X120491855Y-66005945D01*
X120429264Y-66041377D01*
X120360013Y-66054090D01*
X120290668Y-66042463D01*
X120249375Y-66021568D01*
X120206025Y-65985422D01*
X120176481Y-65941276D01*
X120158655Y-65883462D01*
X120150463Y-65806313D01*
X120149302Y-65749714D01*
X120149458Y-65745647D01*
X120250857Y-65745647D01*
X120251476Y-65810550D01*
X120254314Y-65853514D01*
X120260840Y-65881622D01*
X120272523Y-65901953D01*
X120286483Y-65917288D01*
X120333365Y-65946890D01*
X120383701Y-65949419D01*
X120431276Y-65924705D01*
X120434979Y-65921356D01*
X120450783Y-65903935D01*
X120460693Y-65883209D01*
X120466058Y-65852362D01*
X120468228Y-65804577D01*
X120468571Y-65751748D01*
X120467827Y-65685381D01*
X120464748Y-65641106D01*
X120458061Y-65612009D01*
X120446496Y-65591173D01*
X120437013Y-65580107D01*
X120392960Y-65552198D01*
X120342224Y-65548843D01*
X120293796Y-65570159D01*
X120284450Y-65578073D01*
X120268540Y-65595647D01*
X120258610Y-65616587D01*
X120253278Y-65647782D01*
X120251163Y-65696122D01*
X120250857Y-65745647D01*
X120149458Y-65745647D01*
X120152810Y-65658568D01*
X120164726Y-65590086D01*
X120187135Y-65538600D01*
X120222124Y-65498443D01*
X120249375Y-65477861D01*
X120298907Y-65455625D01*
X120356316Y-65445304D01*
X120409682Y-65448067D01*
X120439543Y-65459212D01*
X120451261Y-65462383D01*
X120459037Y-65450557D01*
X120464465Y-65418866D01*
X120468571Y-65370593D01*
X120473067Y-65316829D01*
X120479313Y-65284482D01*
X120490676Y-65265985D01*
X120510528Y-65253770D01*
X120523000Y-65248362D01*
X120570171Y-65228601D01*
X120570117Y-65565358D01*
G37*
X120570117Y-65565358D02*
X120569933Y-65673837D01*
X120569219Y-65757287D01*
X120567675Y-65819704D01*
X120565001Y-65865085D01*
X120560894Y-65897429D01*
X120555055Y-65920733D01*
X120547182Y-65938995D01*
X120541221Y-65949418D01*
X120491855Y-66005945D01*
X120429264Y-66041377D01*
X120360013Y-66054090D01*
X120290668Y-66042463D01*
X120249375Y-66021568D01*
X120206025Y-65985422D01*
X120176481Y-65941276D01*
X120158655Y-65883462D01*
X120150463Y-65806313D01*
X120149302Y-65749714D01*
X120149458Y-65745647D01*
X120250857Y-65745647D01*
X120251476Y-65810550D01*
X120254314Y-65853514D01*
X120260840Y-65881622D01*
X120272523Y-65901953D01*
X120286483Y-65917288D01*
X120333365Y-65946890D01*
X120383701Y-65949419D01*
X120431276Y-65924705D01*
X120434979Y-65921356D01*
X120450783Y-65903935D01*
X120460693Y-65883209D01*
X120466058Y-65852362D01*
X120468228Y-65804577D01*
X120468571Y-65751748D01*
X120467827Y-65685381D01*
X120464748Y-65641106D01*
X120458061Y-65612009D01*
X120446496Y-65591173D01*
X120437013Y-65580107D01*
X120392960Y-65552198D01*
X120342224Y-65548843D01*
X120293796Y-65570159D01*
X120284450Y-65578073D01*
X120268540Y-65595647D01*
X120258610Y-65616587D01*
X120253278Y-65647782D01*
X120251163Y-65696122D01*
X120250857Y-65745647D01*
X120149458Y-65745647D01*
X120152810Y-65658568D01*
X120164726Y-65590086D01*
X120187135Y-65538600D01*
X120222124Y-65498443D01*
X120249375Y-65477861D01*
X120298907Y-65455625D01*
X120356316Y-65445304D01*
X120409682Y-65448067D01*
X120439543Y-65459212D01*
X120451261Y-65462383D01*
X120459037Y-65450557D01*
X120464465Y-65418866D01*
X120468571Y-65370593D01*
X120473067Y-65316829D01*
X120479313Y-65284482D01*
X120490676Y-65265985D01*
X120510528Y-65253770D01*
X120523000Y-65248362D01*
X120570171Y-65228601D01*
X120570117Y-65565358D01*
G36*
X119909926Y-65449755D02*
G01*
X119975858Y-65474084D01*
X120029273Y-65517117D01*
X120050164Y-65547409D01*
X120072939Y-65602994D01*
X120072466Y-65643186D01*
X120048562Y-65670217D01*
X120039717Y-65674813D01*
X120001530Y-65689144D01*
X119982028Y-65685472D01*
X119975422Y-65661407D01*
X119975086Y-65648114D01*
X119962992Y-65599210D01*
X119931471Y-65564999D01*
X119887659Y-65548476D01*
X119838695Y-65552634D01*
X119798894Y-65574227D01*
X119785450Y-65586544D01*
X119775921Y-65601487D01*
X119769485Y-65624075D01*
X119765317Y-65659328D01*
X119762597Y-65712266D01*
X119760502Y-65787907D01*
X119759960Y-65811857D01*
X119757981Y-65893790D01*
X119755731Y-65951455D01*
X119752357Y-65989608D01*
X119747006Y-66013004D01*
X119738824Y-66026398D01*
X119726959Y-66034545D01*
X119719362Y-66038144D01*
X119687102Y-66050452D01*
X119668111Y-66054514D01*
X119661836Y-66040948D01*
X119658006Y-65999934D01*
X119656600Y-65930999D01*
X119657598Y-65833669D01*
X119657908Y-65818657D01*
X119660101Y-65729859D01*
X119662693Y-65665019D01*
X119666382Y-65619067D01*
X119671864Y-65586935D01*
X119679835Y-65563553D01*
X119690993Y-65543852D01*
X119696830Y-65535410D01*
X119730296Y-65498057D01*
X119767727Y-65469003D01*
X119772309Y-65466467D01*
X119839426Y-65446443D01*
X119909926Y-65449755D01*
G37*
X119909926Y-65449755D02*
X119975858Y-65474084D01*
X120029273Y-65517117D01*
X120050164Y-65547409D01*
X120072939Y-65602994D01*
X120072466Y-65643186D01*
X120048562Y-65670217D01*
X120039717Y-65674813D01*
X120001530Y-65689144D01*
X119982028Y-65685472D01*
X119975422Y-65661407D01*
X119975086Y-65648114D01*
X119962992Y-65599210D01*
X119931471Y-65564999D01*
X119887659Y-65548476D01*
X119838695Y-65552634D01*
X119798894Y-65574227D01*
X119785450Y-65586544D01*
X119775921Y-65601487D01*
X119769485Y-65624075D01*
X119765317Y-65659328D01*
X119762597Y-65712266D01*
X119760502Y-65787907D01*
X119759960Y-65811857D01*
X119757981Y-65893790D01*
X119755731Y-65951455D01*
X119752357Y-65989608D01*
X119747006Y-66013004D01*
X119738824Y-66026398D01*
X119726959Y-66034545D01*
X119719362Y-66038144D01*
X119687102Y-66050452D01*
X119668111Y-66054514D01*
X119661836Y-66040948D01*
X119658006Y-65999934D01*
X119656600Y-65930999D01*
X119657598Y-65833669D01*
X119657908Y-65818657D01*
X119660101Y-65729859D01*
X119662693Y-65665019D01*
X119666382Y-65619067D01*
X119671864Y-65586935D01*
X119679835Y-65563553D01*
X119690993Y-65543852D01*
X119696830Y-65535410D01*
X119730296Y-65498057D01*
X119767727Y-65469003D01*
X119772309Y-65466467D01*
X119839426Y-65446443D01*
X119909926Y-65449755D01*
G36*
X119419744Y-65450968D02*
G01*
X119476616Y-65472087D01*
X119477267Y-65472493D01*
X119512440Y-65498380D01*
X119538407Y-65528633D01*
X119556670Y-65568058D01*
X119568732Y-65621462D01*
X119576096Y-65693651D01*
X119580264Y-65789432D01*
X119580629Y-65803078D01*
X119585876Y-66008842D01*
X119541716Y-66031678D01*
X119509763Y-66047110D01*
X119490470Y-66054423D01*
X119489578Y-66054514D01*
X119486239Y-66041022D01*
X119483587Y-66004626D01*
X119481956Y-65951452D01*
X119481600Y-65908393D01*
X119481592Y-65838641D01*
X119478403Y-65794837D01*
X119467288Y-65773944D01*
X119443501Y-65772925D01*
X119402296Y-65788741D01*
X119340086Y-65817815D01*
X119294341Y-65841963D01*
X119270813Y-65862913D01*
X119263896Y-65885747D01*
X119263886Y-65886877D01*
X119275299Y-65926212D01*
X119309092Y-65947462D01*
X119360809Y-65950539D01*
X119398061Y-65950006D01*
X119417703Y-65960735D01*
X119429952Y-65986505D01*
X119437002Y-66019337D01*
X119426842Y-66037966D01*
X119423017Y-66040632D01*
X119387001Y-66051340D01*
X119336566Y-66052856D01*
X119284626Y-66045759D01*
X119247822Y-66032788D01*
X119196938Y-65989585D01*
X119168014Y-65929446D01*
X119162286Y-65882462D01*
X119166657Y-65840082D01*
X119182475Y-65805488D01*
X119213797Y-65774763D01*
X119264678Y-65743990D01*
X119339176Y-65709252D01*
X119343714Y-65707288D01*
X119410821Y-65676287D01*
X119452232Y-65650862D01*
X119469981Y-65628014D01*
X119466107Y-65604745D01*
X119442643Y-65578056D01*
X119435627Y-65571914D01*
X119388630Y-65548100D01*
X119339933Y-65549103D01*
X119297522Y-65572451D01*
X119269384Y-65615675D01*
X119266769Y-65624160D01*
X119241308Y-65665308D01*
X119209001Y-65685128D01*
X119162286Y-65704770D01*
X119162286Y-65653950D01*
X119176496Y-65580082D01*
X119218675Y-65512327D01*
X119240624Y-65489661D01*
X119290517Y-65460569D01*
X119353967Y-65447400D01*
X119419744Y-65450968D01*
G37*
X119419744Y-65450968D02*
X119476616Y-65472087D01*
X119477267Y-65472493D01*
X119512440Y-65498380D01*
X119538407Y-65528633D01*
X119556670Y-65568058D01*
X119568732Y-65621462D01*
X119576096Y-65693651D01*
X119580264Y-65789432D01*
X119580629Y-65803078D01*
X119585876Y-66008842D01*
X119541716Y-66031678D01*
X119509763Y-66047110D01*
X119490470Y-66054423D01*
X119489578Y-66054514D01*
X119486239Y-66041022D01*
X119483587Y-66004626D01*
X119481956Y-65951452D01*
X119481600Y-65908393D01*
X119481592Y-65838641D01*
X119478403Y-65794837D01*
X119467288Y-65773944D01*
X119443501Y-65772925D01*
X119402296Y-65788741D01*
X119340086Y-65817815D01*
X119294341Y-65841963D01*
X119270813Y-65862913D01*
X119263896Y-65885747D01*
X119263886Y-65886877D01*
X119275299Y-65926212D01*
X119309092Y-65947462D01*
X119360809Y-65950539D01*
X119398061Y-65950006D01*
X119417703Y-65960735D01*
X119429952Y-65986505D01*
X119437002Y-66019337D01*
X119426842Y-66037966D01*
X119423017Y-66040632D01*
X119387001Y-66051340D01*
X119336566Y-66052856D01*
X119284626Y-66045759D01*
X119247822Y-66032788D01*
X119196938Y-65989585D01*
X119168014Y-65929446D01*
X119162286Y-65882462D01*
X119166657Y-65840082D01*
X119182475Y-65805488D01*
X119213797Y-65774763D01*
X119264678Y-65743990D01*
X119339176Y-65709252D01*
X119343714Y-65707288D01*
X119410821Y-65676287D01*
X119452232Y-65650862D01*
X119469981Y-65628014D01*
X119466107Y-65604745D01*
X119442643Y-65578056D01*
X119435627Y-65571914D01*
X119388630Y-65548100D01*
X119339933Y-65549103D01*
X119297522Y-65572451D01*
X119269384Y-65615675D01*
X119266769Y-65624160D01*
X119241308Y-65665308D01*
X119209001Y-65685128D01*
X119162286Y-65704770D01*
X119162286Y-65653950D01*
X119176496Y-65580082D01*
X119218675Y-65512327D01*
X119240624Y-65489661D01*
X119290517Y-65460569D01*
X119353967Y-65447400D01*
X119419744Y-65450968D01*
G36*
X118755886Y-65351289D02*
G01*
X118760139Y-65410613D01*
X118765025Y-65445572D01*
X118771795Y-65460820D01*
X118781702Y-65461015D01*
X118784914Y-65459195D01*
X118827644Y-65446015D01*
X118883227Y-65446785D01*
X118939737Y-65460333D01*
X118975082Y-65477861D01*
X119011321Y-65505861D01*
X119037813Y-65537549D01*
X119055999Y-65577813D01*
X119067322Y-65631543D01*
X119073222Y-65703626D01*
X119075143Y-65798951D01*
X119075177Y-65817237D01*
X119075200Y-66022646D01*
X119029491Y-66038580D01*
X118997027Y-66049420D01*
X118979215Y-66054468D01*
X118978691Y-66054514D01*
X118976937Y-66040828D01*
X118975444Y-66003076D01*
X118974326Y-65946224D01*
X118973697Y-65875234D01*
X118973600Y-65832073D01*
X118973398Y-65746973D01*
X118972358Y-65685981D01*
X118969831Y-65644177D01*
X118965164Y-65616642D01*
X118957707Y-65598456D01*
X118946811Y-65584698D01*
X118940007Y-65578073D01*
X118893272Y-65551375D01*
X118842272Y-65549375D01*
X118796001Y-65571955D01*
X118787444Y-65580107D01*
X118774893Y-65595436D01*
X118766188Y-65613618D01*
X118760631Y-65639909D01*
X118757526Y-65679562D01*
X118756176Y-65737832D01*
X118755886Y-65818173D01*
X118755886Y-66022646D01*
X118710177Y-66038580D01*
X118677713Y-66049420D01*
X118659901Y-66054468D01*
X118659377Y-66054514D01*
X118658037Y-66040623D01*
X118656828Y-66001439D01*
X118655801Y-65940700D01*
X118655002Y-65862141D01*
X118654481Y-65769498D01*
X118654286Y-65666509D01*
X118654286Y-65269342D01*
X118701457Y-65249444D01*
X118748629Y-65229547D01*
X118755886Y-65351289D01*
G37*
X118755886Y-65351289D02*
X118760139Y-65410613D01*
X118765025Y-65445572D01*
X118771795Y-65460820D01*
X118781702Y-65461015D01*
X118784914Y-65459195D01*
X118827644Y-65446015D01*
X118883227Y-65446785D01*
X118939737Y-65460333D01*
X118975082Y-65477861D01*
X119011321Y-65505861D01*
X119037813Y-65537549D01*
X119055999Y-65577813D01*
X119067322Y-65631543D01*
X119073222Y-65703626D01*
X119075143Y-65798951D01*
X119075177Y-65817237D01*
X119075200Y-66022646D01*
X119029491Y-66038580D01*
X118997027Y-66049420D01*
X118979215Y-66054468D01*
X118978691Y-66054514D01*
X118976937Y-66040828D01*
X118975444Y-66003076D01*
X118974326Y-65946224D01*
X118973697Y-65875234D01*
X118973600Y-65832073D01*
X118973398Y-65746973D01*
X118972358Y-65685981D01*
X118969831Y-65644177D01*
X118965164Y-65616642D01*
X118957707Y-65598456D01*
X118946811Y-65584698D01*
X118940007Y-65578073D01*
X118893272Y-65551375D01*
X118842272Y-65549375D01*
X118796001Y-65571955D01*
X118787444Y-65580107D01*
X118774893Y-65595436D01*
X118766188Y-65613618D01*
X118760631Y-65639909D01*
X118757526Y-65679562D01*
X118756176Y-65737832D01*
X118755886Y-65818173D01*
X118755886Y-66022646D01*
X118710177Y-66038580D01*
X118677713Y-66049420D01*
X118659901Y-66054468D01*
X118659377Y-66054514D01*
X118658037Y-66040623D01*
X118656828Y-66001439D01*
X118655801Y-65940700D01*
X118655002Y-65862141D01*
X118654481Y-65769498D01*
X118654286Y-65666509D01*
X118654286Y-65269342D01*
X118701457Y-65249444D01*
X118748629Y-65229547D01*
X118755886Y-65351289D01*
G36*
X117548303Y-65431239D02*
G01*
X117605527Y-65469735D01*
X117649749Y-65525335D01*
X117676167Y-65596086D01*
X117681510Y-65648162D01*
X117680903Y-65669893D01*
X117675822Y-65686531D01*
X117661855Y-65701437D01*
X117634589Y-65717973D01*
X117589612Y-65739498D01*
X117522511Y-65769374D01*
X117522171Y-65769524D01*
X117460407Y-65797813D01*
X117409759Y-65822933D01*
X117375404Y-65842179D01*
X117362518Y-65852848D01*
X117362514Y-65852934D01*
X117373872Y-65876166D01*
X117400431Y-65901774D01*
X117430923Y-65920221D01*
X117446370Y-65923886D01*
X117488515Y-65911212D01*
X117524808Y-65879471D01*
X117542517Y-65844572D01*
X117559552Y-65818845D01*
X117592922Y-65789546D01*
X117632149Y-65764235D01*
X117666756Y-65750471D01*
X117673993Y-65749714D01*
X117682139Y-65762160D01*
X117682630Y-65793972D01*
X117676643Y-65836866D01*
X117665357Y-65882558D01*
X117649950Y-65922761D01*
X117649171Y-65924322D01*
X117602804Y-65989062D01*
X117542711Y-66033097D01*
X117474465Y-66054711D01*
X117403638Y-66052185D01*
X117335804Y-66023804D01*
X117332788Y-66021808D01*
X117279427Y-65973448D01*
X117244340Y-65910352D01*
X117224922Y-65827387D01*
X117222316Y-65804078D01*
X117217701Y-65694055D01*
X117223233Y-65642748D01*
X117362514Y-65642748D01*
X117364324Y-65674753D01*
X117374222Y-65684093D01*
X117398898Y-65677105D01*
X117437795Y-65660587D01*
X117481275Y-65639881D01*
X117482356Y-65639333D01*
X117519209Y-65619949D01*
X117534000Y-65607013D01*
X117530353Y-65593451D01*
X117514995Y-65575632D01*
X117475923Y-65549845D01*
X117433846Y-65547950D01*
X117396103Y-65566717D01*
X117370034Y-65602915D01*
X117362514Y-65642748D01*
X117223233Y-65642748D01*
X117227194Y-65606027D01*
X117251550Y-65536212D01*
X117285456Y-65487302D01*
X117346653Y-65437878D01*
X117414063Y-65413359D01*
X117482880Y-65411797D01*
X117548303Y-65431239D01*
G37*
X117548303Y-65431239D02*
X117605527Y-65469735D01*
X117649749Y-65525335D01*
X117676167Y-65596086D01*
X117681510Y-65648162D01*
X117680903Y-65669893D01*
X117675822Y-65686531D01*
X117661855Y-65701437D01*
X117634589Y-65717973D01*
X117589612Y-65739498D01*
X117522511Y-65769374D01*
X117522171Y-65769524D01*
X117460407Y-65797813D01*
X117409759Y-65822933D01*
X117375404Y-65842179D01*
X117362518Y-65852848D01*
X117362514Y-65852934D01*
X117373872Y-65876166D01*
X117400431Y-65901774D01*
X117430923Y-65920221D01*
X117446370Y-65923886D01*
X117488515Y-65911212D01*
X117524808Y-65879471D01*
X117542517Y-65844572D01*
X117559552Y-65818845D01*
X117592922Y-65789546D01*
X117632149Y-65764235D01*
X117666756Y-65750471D01*
X117673993Y-65749714D01*
X117682139Y-65762160D01*
X117682630Y-65793972D01*
X117676643Y-65836866D01*
X117665357Y-65882558D01*
X117649950Y-65922761D01*
X117649171Y-65924322D01*
X117602804Y-65989062D01*
X117542711Y-66033097D01*
X117474465Y-66054711D01*
X117403638Y-66052185D01*
X117335804Y-66023804D01*
X117332788Y-66021808D01*
X117279427Y-65973448D01*
X117244340Y-65910352D01*
X117224922Y-65827387D01*
X117222316Y-65804078D01*
X117217701Y-65694055D01*
X117223233Y-65642748D01*
X117362514Y-65642748D01*
X117364324Y-65674753D01*
X117374222Y-65684093D01*
X117398898Y-65677105D01*
X117437795Y-65660587D01*
X117481275Y-65639881D01*
X117482356Y-65639333D01*
X117519209Y-65619949D01*
X117534000Y-65607013D01*
X117530353Y-65593451D01*
X117514995Y-65575632D01*
X117475923Y-65549845D01*
X117433846Y-65547950D01*
X117396103Y-65566717D01*
X117370034Y-65602915D01*
X117362514Y-65642748D01*
X117223233Y-65642748D01*
X117227194Y-65606027D01*
X117251550Y-65536212D01*
X117285456Y-65487302D01*
X117346653Y-65437878D01*
X117414063Y-65413359D01*
X117482880Y-65411797D01*
X117548303Y-65431239D01*
G36*
X116421115Y-65421962D02*
G01*
X116489145Y-65457733D01*
X116539351Y-65515301D01*
X116557185Y-65552312D01*
X116571063Y-65607882D01*
X116578167Y-65678096D01*
X116578840Y-65754727D01*
X116573427Y-65829552D01*
X116562270Y-65894342D01*
X116545714Y-65940873D01*
X116540626Y-65948887D01*
X116480355Y-66008707D01*
X116408769Y-66044535D01*
X116331092Y-66055020D01*
X116252548Y-66038810D01*
X116230689Y-66029092D01*
X116188122Y-65999143D01*
X116150763Y-65959433D01*
X116147232Y-65954397D01*
X116132881Y-65930124D01*
X116123394Y-65904178D01*
X116117790Y-65870022D01*
X116115086Y-65821119D01*
X116114299Y-65750935D01*
X116114286Y-65735200D01*
X116114322Y-65730192D01*
X116259429Y-65730192D01*
X116260273Y-65796430D01*
X116263596Y-65840386D01*
X116270583Y-65868779D01*
X116282416Y-65888325D01*
X116288457Y-65894857D01*
X116323186Y-65919680D01*
X116356903Y-65918548D01*
X116390995Y-65897016D01*
X116411329Y-65874029D01*
X116423371Y-65840478D01*
X116430134Y-65787569D01*
X116430598Y-65781399D01*
X116431752Y-65685513D01*
X116419688Y-65614299D01*
X116394570Y-65568194D01*
X116356560Y-65547635D01*
X116342992Y-65546514D01*
X116307364Y-65552152D01*
X116282994Y-65571686D01*
X116268093Y-65609042D01*
X116260875Y-65668150D01*
X116259429Y-65730192D01*
X116114322Y-65730192D01*
X116114826Y-65660413D01*
X116117096Y-65608159D01*
X116122068Y-65571949D01*
X116130713Y-65545299D01*
X116144005Y-65521722D01*
X116146943Y-65517338D01*
X116196313Y-65458249D01*
X116250109Y-65423947D01*
X116315602Y-65410331D01*
X116337842Y-65409665D01*
X116421115Y-65421962D01*
G37*
X116421115Y-65421962D02*
X116489145Y-65457733D01*
X116539351Y-65515301D01*
X116557185Y-65552312D01*
X116571063Y-65607882D01*
X116578167Y-65678096D01*
X116578840Y-65754727D01*
X116573427Y-65829552D01*
X116562270Y-65894342D01*
X116545714Y-65940873D01*
X116540626Y-65948887D01*
X116480355Y-66008707D01*
X116408769Y-66044535D01*
X116331092Y-66055020D01*
X116252548Y-66038810D01*
X116230689Y-66029092D01*
X116188122Y-65999143D01*
X116150763Y-65959433D01*
X116147232Y-65954397D01*
X116132881Y-65930124D01*
X116123394Y-65904178D01*
X116117790Y-65870022D01*
X116115086Y-65821119D01*
X116114299Y-65750935D01*
X116114286Y-65735200D01*
X116114322Y-65730192D01*
X116259429Y-65730192D01*
X116260273Y-65796430D01*
X116263596Y-65840386D01*
X116270583Y-65868779D01*
X116282416Y-65888325D01*
X116288457Y-65894857D01*
X116323186Y-65919680D01*
X116356903Y-65918548D01*
X116390995Y-65897016D01*
X116411329Y-65874029D01*
X116423371Y-65840478D01*
X116430134Y-65787569D01*
X116430598Y-65781399D01*
X116431752Y-65685513D01*
X116419688Y-65614299D01*
X116394570Y-65568194D01*
X116356560Y-65547635D01*
X116342992Y-65546514D01*
X116307364Y-65552152D01*
X116282994Y-65571686D01*
X116268093Y-65609042D01*
X116260875Y-65668150D01*
X116259429Y-65730192D01*
X116114322Y-65730192D01*
X116114826Y-65660413D01*
X116117096Y-65608159D01*
X116122068Y-65571949D01*
X116130713Y-65545299D01*
X116144005Y-65521722D01*
X116146943Y-65517338D01*
X116196313Y-65458249D01*
X116250109Y-65423947D01*
X116315602Y-65410331D01*
X116337842Y-65409665D01*
X116421115Y-65421962D01*
G36*
X118096093Y-65427780D02*
G01*
X118142672Y-65454723D01*
X118175057Y-65481466D01*
X118198742Y-65509484D01*
X118215059Y-65543748D01*
X118225339Y-65589227D01*
X118230914Y-65650892D01*
X118233116Y-65733711D01*
X118233371Y-65793246D01*
X118233371Y-66012391D01*
X118171686Y-66040044D01*
X118110000Y-66067697D01*
X118102743Y-65827670D01*
X118099744Y-65738028D01*
X118096598Y-65672962D01*
X118092701Y-65628026D01*
X118087447Y-65598770D01*
X118080231Y-65580748D01*
X118070450Y-65569511D01*
X118067312Y-65567079D01*
X118019761Y-65548083D01*
X117971697Y-65555600D01*
X117943086Y-65575543D01*
X117931447Y-65589675D01*
X117923391Y-65608220D01*
X117918271Y-65636334D01*
X117915441Y-65679173D01*
X117914256Y-65741895D01*
X117914057Y-65807261D01*
X117914018Y-65889268D01*
X117912614Y-65947316D01*
X117907914Y-65986465D01*
X117897987Y-66011780D01*
X117880903Y-66028323D01*
X117854732Y-66041156D01*
X117819775Y-66054491D01*
X117781596Y-66069007D01*
X117786141Y-65811389D01*
X117787971Y-65718519D01*
X117790112Y-65649889D01*
X117793181Y-65600711D01*
X117797794Y-65566198D01*
X117804568Y-65541562D01*
X117814119Y-65522016D01*
X117825634Y-65504770D01*
X117881190Y-65449680D01*
X117948980Y-65417822D01*
X118022713Y-65410191D01*
X118096093Y-65427780D01*
G37*
X118096093Y-65427780D02*
X118142672Y-65454723D01*
X118175057Y-65481466D01*
X118198742Y-65509484D01*
X118215059Y-65543748D01*
X118225339Y-65589227D01*
X118230914Y-65650892D01*
X118233116Y-65733711D01*
X118233371Y-65793246D01*
X118233371Y-66012391D01*
X118171686Y-66040044D01*
X118110000Y-66067697D01*
X118102743Y-65827670D01*
X118099744Y-65738028D01*
X118096598Y-65672962D01*
X118092701Y-65628026D01*
X118087447Y-65598770D01*
X118080231Y-65580748D01*
X118070450Y-65569511D01*
X118067312Y-65567079D01*
X118019761Y-65548083D01*
X117971697Y-65555600D01*
X117943086Y-65575543D01*
X117931447Y-65589675D01*
X117923391Y-65608220D01*
X117918271Y-65636334D01*
X117915441Y-65679173D01*
X117914256Y-65741895D01*
X117914057Y-65807261D01*
X117914018Y-65889268D01*
X117912614Y-65947316D01*
X117907914Y-65986465D01*
X117897987Y-66011780D01*
X117880903Y-66028323D01*
X117854732Y-66041156D01*
X117819775Y-66054491D01*
X117781596Y-66069007D01*
X117786141Y-65811389D01*
X117787971Y-65718519D01*
X117790112Y-65649889D01*
X117793181Y-65600711D01*
X117797794Y-65566198D01*
X117804568Y-65541562D01*
X117814119Y-65522016D01*
X117825634Y-65504770D01*
X117881190Y-65449680D01*
X117948980Y-65417822D01*
X118022713Y-65410191D01*
X118096093Y-65427780D01*
G36*
X116979744Y-65419918D02*
G01*
X117035201Y-65447568D01*
X117084148Y-65498480D01*
X117097629Y-65517338D01*
X117112314Y-65542015D01*
X117121842Y-65568816D01*
X117127293Y-65604587D01*
X117129747Y-65656169D01*
X117130286Y-65724267D01*
X117127852Y-65817588D01*
X117119394Y-65887657D01*
X117103174Y-65939931D01*
X117077454Y-65979869D01*
X117040497Y-66012929D01*
X117037782Y-66014886D01*
X117001360Y-66034908D01*
X116957502Y-66044815D01*
X116901724Y-66047257D01*
X116811048Y-66047257D01*
X116811010Y-66135283D01*
X116810166Y-66184308D01*
X116805024Y-66213065D01*
X116791587Y-66230311D01*
X116765858Y-66244808D01*
X116759679Y-66247769D01*
X116730764Y-66261648D01*
X116708376Y-66270414D01*
X116691729Y-66271171D01*
X116680036Y-66261023D01*
X116672510Y-66237073D01*
X116668366Y-66196426D01*
X116666815Y-66136186D01*
X116667071Y-66053455D01*
X116668349Y-65945339D01*
X116668748Y-65913000D01*
X116670185Y-65801524D01*
X116671472Y-65728603D01*
X116810971Y-65728603D01*
X116811755Y-65790499D01*
X116815240Y-65830997D01*
X116823124Y-65857708D01*
X116837105Y-65878244D01*
X116846597Y-65888260D01*
X116885404Y-65917567D01*
X116919763Y-65919952D01*
X116955216Y-65895750D01*
X116956114Y-65894857D01*
X116970539Y-65876153D01*
X116979313Y-65850732D01*
X116983739Y-65811584D01*
X116985118Y-65751697D01*
X116985143Y-65738430D01*
X116981812Y-65655901D01*
X116970969Y-65598691D01*
X116951340Y-65563766D01*
X116921650Y-65548094D01*
X116904491Y-65546514D01*
X116863766Y-65553926D01*
X116835832Y-65578330D01*
X116819017Y-65622980D01*
X116811650Y-65691130D01*
X116810971Y-65728603D01*
X116671472Y-65728603D01*
X116671708Y-65715245D01*
X116673677Y-65650333D01*
X116676450Y-65602958D01*
X116680388Y-65569290D01*
X116685849Y-65545498D01*
X116693192Y-65527753D01*
X116702777Y-65512224D01*
X116706887Y-65506381D01*
X116761405Y-65451185D01*
X116830336Y-65419890D01*
X116910072Y-65411165D01*
X116979744Y-65419918D01*
G37*
X116979744Y-65419918D02*
X117035201Y-65447568D01*
X117084148Y-65498480D01*
X117097629Y-65517338D01*
X117112314Y-65542015D01*
X117121842Y-65568816D01*
X117127293Y-65604587D01*
X117129747Y-65656169D01*
X117130286Y-65724267D01*
X117127852Y-65817588D01*
X117119394Y-65887657D01*
X117103174Y-65939931D01*
X117077454Y-65979869D01*
X117040497Y-66012929D01*
X117037782Y-66014886D01*
X117001360Y-66034908D01*
X116957502Y-66044815D01*
X116901724Y-66047257D01*
X116811048Y-66047257D01*
X116811010Y-66135283D01*
X116810166Y-66184308D01*
X116805024Y-66213065D01*
X116791587Y-66230311D01*
X116765858Y-66244808D01*
X116759679Y-66247769D01*
X116730764Y-66261648D01*
X116708376Y-66270414D01*
X116691729Y-66271171D01*
X116680036Y-66261023D01*
X116672510Y-66237073D01*
X116668366Y-66196426D01*
X116666815Y-66136186D01*
X116667071Y-66053455D01*
X116668349Y-65945339D01*
X116668748Y-65913000D01*
X116670185Y-65801524D01*
X116671472Y-65728603D01*
X116810971Y-65728603D01*
X116811755Y-65790499D01*
X116815240Y-65830997D01*
X116823124Y-65857708D01*
X116837105Y-65878244D01*
X116846597Y-65888260D01*
X116885404Y-65917567D01*
X116919763Y-65919952D01*
X116955216Y-65895750D01*
X116956114Y-65894857D01*
X116970539Y-65876153D01*
X116979313Y-65850732D01*
X116983739Y-65811584D01*
X116985118Y-65751697D01*
X116985143Y-65738430D01*
X116981812Y-65655901D01*
X116970969Y-65598691D01*
X116951340Y-65563766D01*
X116921650Y-65548094D01*
X116904491Y-65546514D01*
X116863766Y-65553926D01*
X116835832Y-65578330D01*
X116819017Y-65622980D01*
X116811650Y-65691130D01*
X116810971Y-65728603D01*
X116671472Y-65728603D01*
X116671708Y-65715245D01*
X116673677Y-65650333D01*
X116676450Y-65602958D01*
X116680388Y-65569290D01*
X116685849Y-65545498D01*
X116693192Y-65527753D01*
X116702777Y-65512224D01*
X116706887Y-65506381D01*
X116761405Y-65451185D01*
X116830336Y-65419890D01*
X116910072Y-65411165D01*
X116979744Y-65419918D01*
D12*
%TO.C,J1*%
X135890000Y-60960000D02*
X128270000Y-60960000D01*
X128270000Y-81280000D02*
X135890000Y-81280000D01*
X129540000Y-81280000D02*
X129540000Y-60960000D01*
X135890000Y-60960000D02*
X135890000Y-81280000D01*
X128270000Y-60960000D02*
X128270000Y-81280000D01*
%TO.C,J2*%
X129540000Y-93980000D02*
X129540000Y-83820000D01*
X128270000Y-93980000D02*
X135890000Y-93980000D01*
X135890000Y-93980000D02*
X135890000Y-83820000D01*
X135890000Y-83820000D02*
X128270000Y-83820000D01*
X128270000Y-83820000D02*
X128270000Y-93980000D01*
%TO.C,C1*%
X127040000Y-82590000D02*
G75*
G03*
X127040000Y-82590000I-5120000J0D01*
G01*
%TO.C,U2*%
X105120000Y-71060000D02*
X103870000Y-71060000D01*
X105120000Y-88960000D02*
X105120000Y-71060000D01*
X100620000Y-88960000D02*
X105120000Y-88960000D01*
X100620000Y-71060000D02*
X100620000Y-88960000D01*
X101870000Y-71060000D02*
X100620000Y-71060000D01*
X103870000Y-71060000D02*
G75*
G02*
X101870000Y-71060000I-1000000J0D01*
G01*
%TO.C,R1*%
X125190000Y-74700000D02*
X125190000Y-75030000D01*
X125190000Y-75030000D02*
X118650000Y-75030000D01*
X118650000Y-75030000D02*
X118650000Y-74700000D01*
X125190000Y-72620000D02*
X125190000Y-72290000D01*
X125190000Y-72290000D02*
X118650000Y-72290000D01*
X118650000Y-72290000D02*
X118650000Y-72620000D01*
%TO.C,U1*%
D11*
X102108095Y-90892380D02*
X102108095Y-91701904D01*
X102155714Y-91797142D01*
X102203333Y-91844761D01*
X102298571Y-91892380D01*
X102489047Y-91892380D01*
X102584285Y-91844761D01*
X102631904Y-91797142D01*
X102679523Y-91701904D01*
X102679523Y-90892380D01*
X103679523Y-91892380D02*
X103108095Y-91892380D01*
X103393809Y-91892380D02*
X103393809Y-90892380D01*
X103298571Y-91035238D01*
X103203333Y-91130476D01*
X103108095Y-91178095D01*
X97520952Y-92162380D02*
X97759047Y-93162380D01*
X97949523Y-92448095D01*
X98140000Y-93162380D01*
X98378095Y-92162380D01*
X99140000Y-93114761D02*
X99044761Y-93162380D01*
X98854285Y-93162380D01*
X98759047Y-93114761D01*
X98711428Y-93019523D01*
X98711428Y-92638571D01*
X98759047Y-92543333D01*
X98854285Y-92495714D01*
X99044761Y-92495714D01*
X99140000Y-92543333D01*
X99187619Y-92638571D01*
X99187619Y-92733809D01*
X98711428Y-92829047D01*
X99616190Y-93162380D02*
X99616190Y-92162380D01*
X99949523Y-92876666D01*
X100282857Y-92162380D01*
X100282857Y-93162380D01*
X100901904Y-93162380D02*
X100806666Y-93114761D01*
X100759047Y-93067142D01*
X100711428Y-92971904D01*
X100711428Y-92686190D01*
X100759047Y-92590952D01*
X100806666Y-92543333D01*
X100901904Y-92495714D01*
X101044761Y-92495714D01*
X101140000Y-92543333D01*
X101187619Y-92590952D01*
X101235238Y-92686190D01*
X101235238Y-92971904D01*
X101187619Y-93067142D01*
X101140000Y-93114761D01*
X101044761Y-93162380D01*
X100901904Y-93162380D01*
X101616190Y-93114761D02*
X101711428Y-93162380D01*
X101901904Y-93162380D01*
X101997142Y-93114761D01*
X102044761Y-93019523D01*
X102044761Y-92971904D01*
X101997142Y-92876666D01*
X101901904Y-92829047D01*
X101759047Y-92829047D01*
X101663809Y-92781428D01*
X101616190Y-92686190D01*
X101616190Y-92638571D01*
X101663809Y-92543333D01*
X101759047Y-92495714D01*
X101901904Y-92495714D01*
X101997142Y-92543333D01*
X103235238Y-93162380D02*
X103235238Y-92162380D01*
X103473333Y-92162380D01*
X103616190Y-92210000D01*
X103711428Y-92305238D01*
X103759047Y-92400476D01*
X103806666Y-92590952D01*
X103806666Y-92733809D01*
X103759047Y-92924285D01*
X103711428Y-93019523D01*
X103616190Y-93114761D01*
X103473333Y-93162380D01*
X103235238Y-93162380D01*
X104759047Y-93162380D02*
X104187619Y-93162380D01*
X104473333Y-93162380D02*
X104473333Y-92162380D01*
X104378095Y-92305238D01*
X104282857Y-92400476D01*
X104187619Y-92448095D01*
X105949523Y-93162380D02*
X105949523Y-92495714D01*
X105949523Y-92590952D02*
X105997142Y-92543333D01*
X106092380Y-92495714D01*
X106235238Y-92495714D01*
X106330476Y-92543333D01*
X106378095Y-92638571D01*
X106378095Y-93162380D01*
X106378095Y-92638571D02*
X106425714Y-92543333D01*
X106520952Y-92495714D01*
X106663809Y-92495714D01*
X106759047Y-92543333D01*
X106806666Y-92638571D01*
X106806666Y-93162380D01*
X107282857Y-93162380D02*
X107282857Y-92495714D01*
X107282857Y-92162380D02*
X107235238Y-92210000D01*
X107282857Y-92257619D01*
X107330476Y-92210000D01*
X107282857Y-92162380D01*
X107282857Y-92257619D01*
X107759047Y-92495714D02*
X107759047Y-93162380D01*
X107759047Y-92590952D02*
X107806666Y-92543333D01*
X107901904Y-92495714D01*
X108044761Y-92495714D01*
X108140000Y-92543333D01*
X108187619Y-92638571D01*
X108187619Y-93162380D01*
X108663809Y-93162380D02*
X108663809Y-92495714D01*
X108663809Y-92162380D02*
X108616190Y-92210000D01*
X108663809Y-92257619D01*
X108711428Y-92210000D01*
X108663809Y-92162380D01*
X108663809Y-92257619D01*
%TO.C,J1*%
X126452380Y-71453333D02*
X127166666Y-71453333D01*
X127309523Y-71500952D01*
X127404761Y-71596190D01*
X127452380Y-71739047D01*
X127452380Y-71834285D01*
X127452380Y-70453333D02*
X127452380Y-71024761D01*
X127452380Y-70739047D02*
X126452380Y-70739047D01*
X126595238Y-70834285D01*
X126690476Y-70929523D01*
X126738095Y-71024761D01*
%TO.C,J2*%
X126452380Y-89233333D02*
X127166666Y-89233333D01*
X127309523Y-89280952D01*
X127404761Y-89376190D01*
X127452380Y-89519047D01*
X127452380Y-89614285D01*
X126547619Y-88804761D02*
X126500000Y-88757142D01*
X126452380Y-88661904D01*
X126452380Y-88423809D01*
X126500000Y-88328571D01*
X126547619Y-88280952D01*
X126642857Y-88233333D01*
X126738095Y-88233333D01*
X126880952Y-88280952D01*
X127452380Y-88852380D01*
X127452380Y-88233333D01*
%TO.C,C1*%
X121753333Y-89257142D02*
X121705714Y-89304761D01*
X121562857Y-89352380D01*
X121467619Y-89352380D01*
X121324761Y-89304761D01*
X121229523Y-89209523D01*
X121181904Y-89114285D01*
X121134285Y-88923809D01*
X121134285Y-88780952D01*
X121181904Y-88590476D01*
X121229523Y-88495238D01*
X121324761Y-88400000D01*
X121467619Y-88352380D01*
X121562857Y-88352380D01*
X121705714Y-88400000D01*
X121753333Y-88447619D01*
X122705714Y-89352380D02*
X122134285Y-89352380D01*
X122420000Y-89352380D02*
X122420000Y-88352380D01*
X122324761Y-88495238D01*
X122229523Y-88590476D01*
X122134285Y-88638095D01*
X119824761Y-83002380D02*
X119253333Y-83002380D01*
X119539047Y-83002380D02*
X119539047Y-82002380D01*
X119443809Y-82145238D01*
X119348571Y-82240476D01*
X119253333Y-82288095D01*
X120443809Y-82002380D02*
X120539047Y-82002380D01*
X120634285Y-82050000D01*
X120681904Y-82097619D01*
X120729523Y-82192857D01*
X120777142Y-82383333D01*
X120777142Y-82621428D01*
X120729523Y-82811904D01*
X120681904Y-82907142D01*
X120634285Y-82954761D01*
X120539047Y-83002380D01*
X120443809Y-83002380D01*
X120348571Y-82954761D01*
X120300952Y-82907142D01*
X120253333Y-82811904D01*
X120205714Y-82621428D01*
X120205714Y-82383333D01*
X120253333Y-82192857D01*
X120300952Y-82097619D01*
X120348571Y-82050000D01*
X120443809Y-82002380D01*
X121396190Y-82002380D02*
X121491428Y-82002380D01*
X121586666Y-82050000D01*
X121634285Y-82097619D01*
X121681904Y-82192857D01*
X121729523Y-82383333D01*
X121729523Y-82621428D01*
X121681904Y-82811904D01*
X121634285Y-82907142D01*
X121586666Y-82954761D01*
X121491428Y-83002380D01*
X121396190Y-83002380D01*
X121300952Y-82954761D01*
X121253333Y-82907142D01*
X121205714Y-82811904D01*
X121158095Y-82621428D01*
X121158095Y-82383333D01*
X121205714Y-82192857D01*
X121253333Y-82097619D01*
X121300952Y-82050000D01*
X121396190Y-82002380D01*
X122348571Y-82002380D02*
X122443809Y-82002380D01*
X122539047Y-82050000D01*
X122586666Y-82097619D01*
X122634285Y-82192857D01*
X122681904Y-82383333D01*
X122681904Y-82621428D01*
X122634285Y-82811904D01*
X122586666Y-82907142D01*
X122539047Y-82954761D01*
X122443809Y-83002380D01*
X122348571Y-83002380D01*
X122253333Y-82954761D01*
X122205714Y-82907142D01*
X122158095Y-82811904D01*
X122110476Y-82621428D01*
X122110476Y-82383333D01*
X122158095Y-82192857D01*
X122205714Y-82097619D01*
X122253333Y-82050000D01*
X122348571Y-82002380D01*
X123110476Y-82335714D02*
X123110476Y-83335714D01*
X123586666Y-82859523D02*
X123634285Y-82954761D01*
X123729523Y-83002380D01*
X123110476Y-82859523D02*
X123158095Y-82954761D01*
X123253333Y-83002380D01*
X123443809Y-83002380D01*
X123539047Y-82954761D01*
X123586666Y-82859523D01*
X123586666Y-82335714D01*
X124491428Y-82478571D02*
X124158095Y-82478571D01*
X124158095Y-83002380D02*
X124158095Y-82002380D01*
X124634285Y-82002380D01*
%TO.C,U2*%
X102108095Y-69512380D02*
X102108095Y-70321904D01*
X102155714Y-70417142D01*
X102203333Y-70464761D01*
X102298571Y-70512380D01*
X102489047Y-70512380D01*
X102584285Y-70464761D01*
X102631904Y-70417142D01*
X102679523Y-70321904D01*
X102679523Y-69512380D01*
X103108095Y-69607619D02*
X103155714Y-69560000D01*
X103250952Y-69512380D01*
X103489047Y-69512380D01*
X103584285Y-69560000D01*
X103631904Y-69607619D01*
X103679523Y-69702857D01*
X103679523Y-69798095D01*
X103631904Y-69940952D01*
X103060476Y-70512380D01*
X103679523Y-70512380D01*
X103274761Y-85557619D02*
X103322380Y-85414761D01*
X103322380Y-85176666D01*
X103274761Y-85081428D01*
X103227142Y-85033809D01*
X103131904Y-84986190D01*
X103036666Y-84986190D01*
X102941428Y-85033809D01*
X102893809Y-85081428D01*
X102846190Y-85176666D01*
X102798571Y-85367142D01*
X102750952Y-85462380D01*
X102703333Y-85510000D01*
X102608095Y-85557619D01*
X102512857Y-85557619D01*
X102417619Y-85510000D01*
X102370000Y-85462380D01*
X102322380Y-85367142D01*
X102322380Y-85129047D01*
X102370000Y-84986190D01*
X103322380Y-84557619D02*
X102322380Y-84557619D01*
X103322380Y-83986190D01*
X102322380Y-83986190D01*
X102322380Y-83605238D02*
X102322380Y-82938571D01*
X103322380Y-83367142D01*
X102655714Y-82129047D02*
X103322380Y-82129047D01*
X102274761Y-82367142D02*
X102989047Y-82605238D01*
X102989047Y-81986190D01*
X103036666Y-81652857D02*
X103036666Y-81176666D01*
X103322380Y-81748095D02*
X102322380Y-81414761D01*
X103322380Y-81081428D01*
X103322380Y-80748095D02*
X102322380Y-80748095D01*
X102798571Y-80748095D02*
X102798571Y-80176666D01*
X103322380Y-80176666D02*
X102322380Y-80176666D01*
X103227142Y-79129047D02*
X103274761Y-79176666D01*
X103322380Y-79319523D01*
X103322380Y-79414761D01*
X103274761Y-79557619D01*
X103179523Y-79652857D01*
X103084285Y-79700476D01*
X102893809Y-79748095D01*
X102750952Y-79748095D01*
X102560476Y-79700476D01*
X102465238Y-79652857D01*
X102370000Y-79557619D01*
X102322380Y-79414761D01*
X102322380Y-79319523D01*
X102370000Y-79176666D01*
X102417619Y-79129047D01*
X102322380Y-78843333D02*
X102322380Y-78271904D01*
X103322380Y-78557619D02*
X102322380Y-78557619D01*
X103322380Y-77414761D02*
X103322380Y-77986190D01*
X103322380Y-77700476D02*
X102322380Y-77700476D01*
X102465238Y-77795714D01*
X102560476Y-77890952D01*
X102608095Y-77986190D01*
X102417619Y-77033809D02*
X102370000Y-76986190D01*
X102322380Y-76890952D01*
X102322380Y-76652857D01*
X102370000Y-76557619D01*
X102417619Y-76510000D01*
X102512857Y-76462380D01*
X102608095Y-76462380D01*
X102750952Y-76510000D01*
X103322380Y-77081428D01*
X103322380Y-76462380D01*
X102322380Y-75557619D02*
X102322380Y-76033809D01*
X102798571Y-76081428D01*
X102750952Y-76033809D01*
X102703333Y-75938571D01*
X102703333Y-75700476D01*
X102750952Y-75605238D01*
X102798571Y-75557619D01*
X102893809Y-75510000D01*
X103131904Y-75510000D01*
X103227142Y-75557619D01*
X103274761Y-75605238D01*
X103322380Y-75700476D01*
X103322380Y-75938571D01*
X103274761Y-76033809D01*
X103227142Y-76081428D01*
X103322380Y-75081428D02*
X102322380Y-75081428D01*
X103322380Y-74510000D01*
X102322380Y-74510000D01*
%TO.C,R1*%
X121753333Y-76482380D02*
X121420000Y-76006190D01*
X121181904Y-76482380D02*
X121181904Y-75482380D01*
X121562857Y-75482380D01*
X121658095Y-75530000D01*
X121705714Y-75577619D01*
X121753333Y-75672857D01*
X121753333Y-75815714D01*
X121705714Y-75910952D01*
X121658095Y-75958571D01*
X121562857Y-76006190D01*
X121181904Y-76006190D01*
X122705714Y-76482380D02*
X122134285Y-76482380D01*
X122420000Y-76482380D02*
X122420000Y-75482380D01*
X122324761Y-75625238D01*
X122229523Y-75720476D01*
X122134285Y-75768095D01*
X120062857Y-73112380D02*
X120681904Y-73112380D01*
X120348571Y-73493333D01*
X120491428Y-73493333D01*
X120586666Y-73540952D01*
X120634285Y-73588571D01*
X120681904Y-73683809D01*
X120681904Y-73921904D01*
X120634285Y-74017142D01*
X120586666Y-74064761D01*
X120491428Y-74112380D01*
X120205714Y-74112380D01*
X120110476Y-74064761D01*
X120062857Y-74017142D01*
X121015238Y-73112380D02*
X121634285Y-73112380D01*
X121300952Y-73493333D01*
X121443809Y-73493333D01*
X121539047Y-73540952D01*
X121586666Y-73588571D01*
X121634285Y-73683809D01*
X121634285Y-73921904D01*
X121586666Y-74017142D01*
X121539047Y-74064761D01*
X121443809Y-74112380D01*
X121158095Y-74112380D01*
X121062857Y-74064761D01*
X121015238Y-74017142D01*
X122253333Y-73112380D02*
X122348571Y-73112380D01*
X122443809Y-73160000D01*
X122491428Y-73207619D01*
X122539047Y-73302857D01*
X122586666Y-73493333D01*
X122586666Y-73731428D01*
X122539047Y-73921904D01*
X122491428Y-74017142D01*
X122443809Y-74064761D01*
X122348571Y-74112380D01*
X122253333Y-74112380D01*
X122158095Y-74064761D01*
X122110476Y-74017142D01*
X122062857Y-73921904D01*
X122015238Y-73731428D01*
X122015238Y-73493333D01*
X122062857Y-73302857D01*
X122110476Y-73207619D01*
X122158095Y-73160000D01*
X122253333Y-73112380D01*
X122967619Y-74112380D02*
X123205714Y-74112380D01*
X123205714Y-73921904D01*
X123110476Y-73874285D01*
X123015238Y-73779047D01*
X122967619Y-73636190D01*
X122967619Y-73398095D01*
X123015238Y-73255238D01*
X123110476Y-73160000D01*
X123253333Y-73112380D01*
X123443809Y-73112380D01*
X123586666Y-73160000D01*
X123681904Y-73255238D01*
X123729523Y-73398095D01*
X123729523Y-73636190D01*
X123681904Y-73779047D01*
X123586666Y-73874285D01*
X123491428Y-73921904D01*
X123491428Y-74112380D01*
X123729523Y-74112380D01*
%TD*%
M02*
