M48
; DRILL file {KiCad (5.1.9-0-10_14)} date Tuesday, June 15, 2021 at 10:39:20 AM
; FORMAT={-:-/ absolute / inch / decimal}
; #@! TF.CreationDate,2021-06-15T10:39:20+02:00
; #@! TF.GenerationSoftware,Kicad,Pcbnew,(5.1.9-0-10_14)
; #@! TF.FileFunction,Plated,1,2,PTH
FMAT,2
INCH
T1C0.0315
T2C0.0394
T3C0.0598
%
G90
G05
T1
X3.9Y-2.85
X3.9Y-2.95
X3.9Y-3.05
X3.9Y-3.15
X3.9Y-3.25
X3.9Y-3.35
X3.9Y-3.45
X4.2Y-2.85
X4.2Y-2.95
X4.2Y-3.05
X4.2Y-3.15
X4.2Y-3.25
X4.2Y-3.35
X4.2Y-3.45
X4.65Y-2.9
X4.8Y-3.1531
X4.8Y-3.35
X4.95Y-2.9
T2
X3.6Y-2.7
X3.6Y-2.8
X3.6Y-2.9
X3.6Y-3.0
X3.6Y-3.1
X3.6Y-3.2
X3.6Y-3.3
X3.6Y-3.4
X4.5Y-2.7
X4.5Y-2.8
X4.5Y-2.9
X4.5Y-3.0
X4.5Y-3.1
X4.5Y-3.2
X4.5Y-3.3
X4.5Y-3.4
T3
X5.2Y-2.5
X5.2Y-2.7
X5.2Y-2.9
X5.2Y-3.1
X5.2Y-3.4
X5.2Y-3.6
T0
M30
